<svg width="46" height="46" viewBox="0 0 46 46" fill="none" xmlns="http://www.w3.org/2000/svg">
<g opacity="0.3" filter="url(#filter0_d)">
<path d="M26.357 14.9988C29.7628 14.9988 32.5239 17.7598 32.5239 21.1657C32.5239 24.5716 29.7628 27.3326 26.357 27.3326L26.1669 27.3326C22.761 27.3326 20 24.5716 20 21.1657C20 17.7598 22.761 14.9988 26.1669 14.9988L26.357 14.9988Z" fill="#8EF2D2"/>
</g>
<g opacity="0.1" filter="url(#filter1_d)">
<path d="M19.357 18.9988C22.7628 18.9988 25.5239 21.7598 25.5239 25.1657C25.5239 28.5716 22.7628 31.3326 19.357 31.3326L19.1669 31.3326C15.761 31.3326 13 28.5716 13 25.1657C13 21.7598 15.761 18.9988 19.1669 18.9988L19.357 18.9988Z" fill="#8EF2D2"/>
</g>
<g opacity="0.6" filter="url(#filter2_d)">
<path d="M19.357 10.9988C22.7628 10.9988 25.5239 13.7598 25.5239 17.1657C25.5239 20.5716 22.7628 23.3326 19.357 23.3326L19.1669 23.3326C15.761 23.3326 13 20.5716 13 17.1657C13 13.7598 15.761 10.9988 19.1669 10.9988L19.357 10.9988Z" fill="#8EF2D2"/>
</g>
<defs>
<filter id="filter0_d" x="7.5" y="4.49878" width="37.5239" height="37.3338" filterUnits="userSpaceOnUse" color-interpolation-filters="sRGB">
<feFlood flood-opacity="0" result="BackgroundImageFix"/>
<feColorMatrix in="SourceAlpha" type="matrix" values="0 0 0 0 0 0 0 0 0 0 0 0 0 0 0 0 0 0 127 0"/>
<feOffset dy="2"/>
<feGaussianBlur stdDeviation="6.25"/>
<feColorMatrix type="matrix" values="0 0 0 0 0.127924 0 0 0 0 0 0 0 0 0 0.291667 0 0 0 0.25 0"/>
<feBlend mode="normal" in2="BackgroundImageFix" result="effect1_dropShadow"/>
<feBlend mode="normal" in="SourceGraphic" in2="effect1_dropShadow" result="shape"/>
</filter>
<filter id="filter1_d" x="0.5" y="8.49878" width="37.5239" height="37.3338" filterUnits="userSpaceOnUse" color-interpolation-filters="sRGB">
<feFlood flood-opacity="0" result="BackgroundImageFix"/>
<feColorMatrix in="SourceAlpha" type="matrix" values="0 0 0 0 0 0 0 0 0 0 0 0 0 0 0 0 0 0 127 0"/>
<feOffset dy="2"/>
<feGaussianBlur stdDeviation="6.25"/>
<feColorMatrix type="matrix" values="0 0 0 0 0.127924 0 0 0 0 0 0 0 0 0 0.291667 0 0 0 0.25 0"/>
<feBlend mode="normal" in2="BackgroundImageFix" result="effect1_dropShadow"/>
<feBlend mode="normal" in="SourceGraphic" in2="effect1_dropShadow" result="shape"/>
</filter>
<filter id="filter2_d" x="0.5" y="0.498779" width="37.5239" height="37.3338" filterUnits="userSpaceOnUse" color-interpolation-filters="sRGB">
<feFlood flood-opacity="0" result="BackgroundImageFix"/>
<feColorMatrix in="SourceAlpha" type="matrix" values="0 0 0 0 0 0 0 0 0 0 0 0 0 0 0 0 0 0 127 0"/>
<feOffset dy="2"/>
<feGaussianBlur stdDeviation="6.25"/>
<feColorMatrix type="matrix" values="0 0 0 0 0.127924 0 0 0 0 0 0 0 0 0 0.291667 0 0 0 0.25 0"/>
<feBlend mode="normal" in2="BackgroundImageFix" result="effect1_dropShadow"/>
<feBlend mode="normal" in="SourceGraphic" in2="effect1_dropShadow" result="shape"/>
</filter>
</defs>
</svg>
