<svg width="22" height="17" viewBox="0 0 22 17" fill="none" xmlns="http://www.w3.org/2000/svg">
<path fill-rule="evenodd" clip-rule="evenodd" d="M6.34132 15.1561C6.34132 14.9572 6.42363 14.7664 6.57014 14.6258C6.71666 14.4851 6.91537 14.4061 7.12257 14.4061H21.1851C21.3923 14.4061 21.591 14.4851 21.7375 14.6258C21.884 14.7664 21.9663 14.9572 21.9663 15.1561C21.9663 15.355 21.884 15.5458 21.7375 15.6865C21.591 15.8271 21.3923 15.9061 21.1851 15.9061H7.12257C6.91537 15.9061 6.71666 15.8271 6.57014 15.6865C6.42363 15.5458 6.34132 15.355 6.34132 15.1561ZM6.34132 9.15612C6.34132 8.95721 6.42363 8.76645 6.57014 8.62579C6.71666 8.48514 6.91537 8.40612 7.12257 8.40612H21.1851C21.3923 8.40612 21.591 8.48514 21.7375 8.62579C21.884 8.76645 21.9663 8.95721 21.9663 9.15612C21.9663 9.35503 21.884 9.5458 21.7375 9.68645C21.591 9.82711 21.3923 9.90612 21.1851 9.90612H7.12257C6.91537 9.90612 6.71666 9.82711 6.57014 9.68645C6.42363 9.5458 6.34132 9.35503 6.34132 9.15612ZM6.34132 3.15613C6.34132 2.95721 6.42363 2.76645 6.57014 2.6258C6.71666 2.48514 6.91537 2.40613 7.12257 2.40613H21.1851C21.3923 2.40613 21.591 2.48514 21.7375 2.6258C21.884 2.76645 21.9663 2.95721 21.9663 3.15613C21.9663 3.35504 21.884 3.5458 21.7375 3.68646C21.591 3.82711 21.3923 3.90612 21.1851 3.90612H7.12257C6.91537 3.90612 6.71666 3.82711 6.57014 3.68646C6.42363 3.5458 6.34132 3.35504 6.34132 3.15613ZM4.55069 1.12513C4.62345 1.19479 4.68117 1.27756 4.72056 1.36868C4.75994 1.45979 4.78022 1.55747 4.78022 1.65613C4.78022 1.75478 4.75994 1.85246 4.72056 1.94358C4.68117 2.03469 4.62345 2.11746 4.55069 2.18713L2.20694 4.43712C2.13437 4.50697 2.04816 4.56238 1.95325 4.60019C1.85833 4.638 1.75658 4.65746 1.65382 4.65746C1.55106 4.65746 1.44931 4.638 1.35439 4.60019C1.25948 4.56238 1.17327 4.50697 1.10069 4.43712L0.319444 3.68713C0.246807 3.61739 0.189187 3.53461 0.149876 3.4435C0.110565 3.35239 0.090332 3.25474 0.090332 3.15613C0.090332 3.05751 0.110565 2.95986 0.149876 2.86875C0.189187 2.77764 0.246807 2.69486 0.319444 2.62513C0.392081 2.55539 0.478315 2.50008 0.57322 2.46234C0.668125 2.4246 0.769844 2.40518 0.872569 2.40518C0.975294 2.40518 1.07701 2.4246 1.17192 2.46234C1.26682 2.50008 1.35306 2.55539 1.42569 2.62513L1.65382 2.84563L3.44444 1.12513C3.51702 1.05528 3.60323 0.999867 3.69814 0.962057C3.79306 0.924247 3.89481 0.904785 3.99757 0.904785C4.10033 0.904785 4.20208 0.924247 4.297 0.962057C4.39191 0.999867 4.47812 1.05528 4.55069 1.12513ZM4.55069 7.12512C4.62345 7.19479 4.68117 7.27756 4.72056 7.36867C4.75994 7.45979 4.78022 7.55747 4.78022 7.65612C4.78022 7.75477 4.75994 7.85246 4.72056 7.94357C4.68117 8.03469 4.62345 8.11746 4.55069 8.18712L2.20694 10.4371C2.13437 10.507 2.04816 10.5624 1.95325 10.6002C1.85833 10.638 1.75658 10.6575 1.65382 10.6575C1.55106 10.6575 1.44931 10.638 1.35439 10.6002C1.25948 10.5624 1.17327 10.507 1.10069 10.4371L0.319444 9.68712C0.172746 9.54629 0.090332 9.35529 0.090332 9.15612C0.090332 8.95696 0.172746 8.76595 0.319444 8.62512C0.466142 8.48429 0.665107 8.40518 0.872569 8.40518C1.08003 8.40518 1.279 8.48429 1.42569 8.62512L1.65382 8.84562L3.44444 7.12512C3.51702 7.05528 3.60323 6.99987 3.69814 6.96206C3.79306 6.92425 3.89481 6.90478 3.99757 6.90478C4.10033 6.90478 4.20208 6.92425 4.297 6.96206C4.39191 6.99987 4.47812 7.05528 4.55069 7.12512ZM4.55069 13.1251C4.62345 13.1948 4.68117 13.2776 4.72056 13.3687C4.75994 13.4598 4.78022 13.5575 4.78022 13.6561C4.78022 13.7548 4.75994 13.8525 4.72056 13.9436C4.68117 14.0347 4.62345 14.1175 4.55069 14.1871L2.20694 16.4371C2.13437 16.507 2.04816 16.5624 1.95325 16.6002C1.85833 16.638 1.75658 16.6575 1.65382 16.6575C1.55106 16.6575 1.44931 16.638 1.35439 16.6002C1.25948 16.5624 1.17327 16.507 1.10069 16.4371L0.319444 15.6871C0.172746 15.5463 0.090332 15.3553 0.090332 15.1561C0.090332 14.957 0.172746 14.766 0.319444 14.6251C0.466142 14.4843 0.665107 14.4052 0.872569 14.4052C1.08003 14.4052 1.279 14.4843 1.42569 14.6251L1.65382 14.8456L3.44444 13.1251C3.51702 13.0553 3.60323 12.9999 3.69814 12.9621C3.79306 12.9242 3.89481 12.9048 3.99757 12.9048C4.10033 12.9048 4.20208 12.9242 4.297 12.9621C4.39191 12.9999 4.47812 13.0553 4.55069 13.1251Z" fill="#18103E"/>
</svg>
