<svg width="220" height="386" viewBox="0 0 220 386" fill="none" xmlns="http://www.w3.org/2000/svg">
<path d="M50.0081 165.063C47.142 163.16 45.3438 159.623 46.1977 156.115C46.8192 153.563 48.6781 151.723 50.9143 150.346C50.5955 149.559 50.598 148.62 51.2247 147.597C55.428 140.691 62.5824 145.947 66.9638 149.336C67.1761 149.506 67.2668 149.702 67.4238 149.882C73.3184 147.359 79.2313 145.175 84.9232 141.621C94.5539 135.602 84.7783 141.711 84.7783 141.711L97.8176 146.855C97.8176 146.855 89.7369 158.646 83.2488 161.889C77.4373 166.936 71.6989 167.258 64.9382 167.228C60.7473 169.28 54.2604 167.888 50.0081 165.063Z" fill="#FFCE99"/>
<path d="M78.6519 333.728L90.4747 241.825L108.02 243.558L96.4695 335.488C96.281 336.469 95.743 337.282 94.8554 337.925C93.9679 338.568 92.98 338.836 91.8919 338.729L82.5071 337.802C81.3283 337.686 80.344 337.223 79.5541 336.414C78.7642 335.605 78.4634 334.71 78.6519 333.728Z" fill="#00004C" id="dark-blue"/>
<path d="M134.281 326.064L138.243 216.134L155.873 216.331L152.185 326.264C152.08 327.445 151.613 328.463 150.784 329.317C149.954 330.171 148.993 330.593 147.899 330.58L138.469 330.475C137.285 330.462 136.265 330.019 135.409 329.145C134.553 328.272 134.177 327.245 134.281 326.064Z" fill="#00004C" id="dark-blue"/>
<path d="M123.251 235.805L90.3274 244.454C85.4985 244.4 81.3569 246.036 77.9026 249.361C74.4482 252.686 72.6935 256.803 72.6385 261.712C72.5835 266.621 74.2682 270.777 77.6927 274.18C81.1172 277.582 95.9076 289.35 100.645 289.403L107.205 289.477L103.492 376.875C103.387 378.056 103.763 379.083 104.619 379.957C105.475 380.83 106.495 381.273 107.679 381.287L117.109 381.392C118.203 381.405 119.164 380.983 119.994 380.129C120.824 379.275 121.291 378.257 121.395 377.076L124.835 289.674L168.215 271.222L180.422 373.215C180.846 376.038 182.243 377.463 184.612 377.49L194.725 377.603C195.909 377.616 196.939 377.196 197.814 376.342C198.689 375.488 199.088 374.515 199.009 373.423L185.65 265.97C186.017 265.793 198.019 256.282 198.019 256.282C198.019 256.282 214.239 84.202 215.288 75.94C215.335 71.7582 214.039 69.836 211.21 66.0765C208.382 62.3171 204.007 60.4042 198.085 60.3378C192.709 60.2775 166.151 61.6845 163.47 65.064C160.79 68.4435 158.316 73.7118 156.049 80.8691C147.454 107.867 125.89 195.466 123.251 235.805Z" fill="#00004C"/>
<path d="M144.867 63.4464C140.195 69.8323 137.44 72.6144 141.016 83.6504C143.792 92.2636 147.504 101.586 152.523 106.585C157.871 111.899 163.522 102.897 165.779 95.9177C168.399 87.7997 166.733 75.9508 162.762 64.2402C156.95 54.9146 151.195 54.8129 144.867 63.4501" fill="#FFCE99"/>
<path d="M147.202 29.8463C135.129 27.6788 128.828 25.6992 124.849 38.7339C121.722 48.8849 119.363 60.8907 122.487 71.6903C125.825 83.189 130.669 85.4162 150.552 83.1608C161.089 81.1359 171.488 73.5074 170.924 60.9712C170.243 45.9384 163.54 32.7924 147.199 29.8492" fill="#FFCE99"/>
<path d="M52.0201 305.954C52.1918 310.668 40.202 315.075 27.1143 316.131C14.0509 317.165 3.32237 314.205 3.14189 309.487C2.98706 304.771 13.122 292.284 26.1806 291.241C49.2955 286.014 49.2954 286.014 49.2954 286.014" fill="#000064" id="blue"/>
<path fill-rule="evenodd" clip-rule="evenodd" d="M157.719 219.96C164.657 219.369 168.201 212.732 172.578 214.206C175.18 214.002 171.324 238.134 167.72 241.513C144.137 282.624 94.5419 221.43 75.1065 240.475C59.2558 256.037 51.1441 292.148 51.1441 292.148L17.7508 291.393C17.7508 291.393 45.1918 226.119 68.8365 205.426C84.8011 191.454 112.52 215.591 130.639 201.843C131.533 200.901 145.03 227.322 146.049 226.335C149.286 223.206 155.057 220.177 157.739 219.947" fill="#000064" id="blue"/>
<path d="M87.7426 376.239C87.314 380.629 75.3106 383.214 62.68 382.556C50.0755 381.88 40.2026 377.795 40.6233 373.4C41.0682 369.01 52.3158 358.706 64.917 359.373C87.647 357.42 87.647 357.421 87.647 357.421" fill="#000064" id="blue"/>
<path d="M119.939 200.014C123.656 159.808 129.761 173.016 137.47 174.093C140.643 174.522 175.627 208.914 173.459 215.341C171.421 221.371 131.907 239.992 131.907 239.992C131.907 239.992 84.6935 245.385 82.4987 274.29C80.5614 299.803 89.8674 358.555 89.8674 358.555C89.8674 358.555 65.316 364.03 61.5251 358.989C58.3837 354.811 62.9602 357.197 63.8867 349.338C67.547 318.277 59.1593 302.811 61.9105 272.134C65.0097 237.607 101.626 218.831 119.939 200.014Z" fill="#000064" id="blue"/>
<path d="M129.812 119.412C113.211 127.65 79.5979 141.077 79.5979 141.077C72.8143 149.299 69.6932 162.082 70.0248 169.657C71.8326 168.936 73.6188 168.259 75.4339 167.501C101.543 156.638 143.618 140.142 133.687 123.322L129.812 119.412Z" fill="white" id="white"/>
<path d="M161.618 92.3394C164.768 93.1306 170.18 92.1679 171.006 92.7942C175.617 96.2916 178.603 108.254 178.603 108.254C178.603 108.254 170.025 180.266 173.774 203.968C173.997 208.397 169.091 210.389 166.446 210.541C152.028 211.35 113.831 207.792 113.831 207.792C113.831 207.792 118.617 151.934 130.162 117.049C136.015 99.3626 149.126 89.2013 161.618 92.3394Z" fill="white" id="white"/>
<path fill-rule="evenodd" clip-rule="evenodd" d="M57.9535 80.6289L74.793 114.346C73.984 115.686 73.979 117.374 74.9156 118.647C75.6114 119.592 76.6336 120.086 77.7005 120.168L110.145 185.132L35.3536 176.102L21.8573 124.725C23.0935 126.207 25.4609 126.75 27.4681 125.235C29.2725 123.874 29.7018 121.408 28.4319 119.699C26.6373 117.283 22.723 117.83 21.4053 120.681C21.2415 121.035 21.1317 121.385 21.0698 121.727L7.99121 71.9403L32.6308 63.7998L29.8058 75.7339L57.9535 80.6289ZM51.5082 98.1423C53.3126 96.7804 53.7419 94.3146 52.4721 92.6054C50.6774 90.1897 46.7631 90.7368 45.4455 93.5875C43.6921 97.3807 48.1148 100.703 51.5082 98.1423ZM50.4284 138.769C48.624 140.131 48.1947 142.597 49.4646 144.306C51.2592 146.722 55.1735 146.175 56.4912 143.324C58.2445 139.531 53.8218 136.208 50.4284 138.769ZM57.4646 157.306C56.1947 155.597 56.624 153.131 58.4284 151.769C61.8218 149.208 66.2445 152.531 64.4912 156.324C63.1735 159.175 59.2592 159.722 57.4646 157.306ZM66.4284 164.769C64.624 166.131 64.1947 168.597 65.4646 170.306C67.2592 172.722 71.1735 172.175 72.4912 169.324C74.2445 165.531 69.8218 162.208 66.4284 164.769ZM80.4646 156.306C79.1947 154.597 79.624 152.131 81.4284 150.769C84.8218 148.208 89.2445 151.531 87.4912 155.324C86.1735 158.175 82.2592 158.722 80.4646 156.306ZM55.339 113.417C57.5395 112.778 59.0115 111.058 58.7811 109.396C58.4094 106.715 54.1046 105.913 51.3434 108.011C47.7699 110.727 50.7443 114.75 55.339 113.417ZM34.741 136.489C34.9714 138.151 33.4994 139.871 31.2988 140.509C26.7042 141.843 23.7298 137.82 27.3033 135.104C30.0645 133.006 34.3693 133.808 34.741 136.489ZM46.5981 123.495C44.3976 124.134 42.9256 125.853 43.156 127.515C43.5277 130.197 47.8325 130.999 50.5937 128.9C54.1672 126.185 51.1928 122.161 46.5981 123.495ZM25.3038 100.457C24.0437 98.7445 24.4879 96.2809 26.3011 94.9248C29.7111 92.3744 34.1156 95.7084 32.3389 99.4951C31.0037 102.341 27.0846 102.877 25.3038 100.457ZM76.6333 136.455C77.8934 138.167 77.4492 140.631 75.636 141.987C72.226 144.537 67.8215 141.203 69.5982 137.417C70.9334 134.571 74.8525 134.035 76.6333 136.455ZM44.2883 160.315C46.0928 158.953 46.522 156.487 45.2522 154.778C43.4576 152.363 39.5433 152.91 38.2256 155.76C36.4723 159.554 40.8949 162.876 44.2883 160.315ZM51.5613 171.569C51.7917 173.231 50.3197 174.95 48.1191 175.589C43.5244 176.923 40.5501 172.899 44.1236 170.184C46.8848 168.086 51.1896 168.887 51.5613 171.569ZM22.1983 85.6707C24.3793 84.7698 25.6258 82.7106 25.0509 80.9583C24.1879 78.3277 19.9761 78.0309 17.6213 80.4349C14.5286 83.5921 17.8982 87.4467 22.1983 85.6707Z" fill="#000064" id="blue"/>
<path d="M88.8148 177.578C85.9598 175.679 84.1526 172.067 84.9755 168.422C85.5743 165.771 87.405 163.825 89.6131 162.35C89.2916 161.544 89.2876 160.575 89.9021 159.502C94.0229 152.267 101.153 157.529 105.521 160.927C105.732 161.098 105.823 161.298 105.98 161.48C111.808 158.734 118.872 157.117 124.492 153.311L136.098 157.635C136.098 157.635 128.165 170.009 121.754 173.513C116.026 178.865 110.338 179.334 103.634 179.462C99.4923 181.682 93.0505 180.396 88.8148 177.578Z" fill="#FFCE99"/>
<path d="M109.772 186.707C138.591 171.284 182.654 129.104 175.894 108.491C175.894 108.491 171.24 88.1584 165.084 101.234C161.948 107.894 156.253 122.429 144.049 135.005C132.295 147.119 113.961 157.409 113.961 157.409C106.923 163.676 103.307 181.611 103.8 189.799C105.796 188.766 107.769 187.783 109.772 186.707Z" fill="white" id="white"/>
<path d="M169.158 26.6633C162.377 18.6386 151.232 16.9414 144.02 16.3447C136.808 15.7481 120.651 27.8705 120.651 27.8705C120.651 27.8705 112.29 32.9325 116.253 44.0667C116.253 44.0667 122.962 64.5021 124.792 43.4483C125.158 39.0611 127.848 42.587 129.737 41.8443C133.18 40.4905 134.795 37.1086 138.116 37.4186C142.01 37.7822 146.055 39.1561 147.016 42.3263C147.317 43.3024 155.516 56.1958 157.166 55.8884C160.287 56.7539 162.261 46.8017 164.727 45.9232C167.26 45.0211 169.309 51.1515 171.931 50.2293C175.276 49.0526 175.527 47.5543 175.163 41.5543C174.836 36.1777 173.059 31.2803 169.158 26.6633Z" fill="#382800"/>
<path d="M166.947 92.0276C166.947 92.0276 158.672 100.483 153.375 105.42L144.878 137.692L134.149 153.724L134.165 137.008L143.741 102.312C143.741 102.312 136.953 95.1391 141.48 92.4932C145.933 89.8906 166.947 92.0276 166.947 92.0276Z" fill="#000064" id="blue"/>
<path d="M168.65 47.2545L164.346 46.5378C164.111 46.4987 163.871 46.5019 163.637 46.5472L145.563 50.0513M145.563 50.0513L144.983 56.7836C144.901 57.7289 144.167 58.487 143.225 58.5982L135.194 59.546C134.215 59.6616 133.297 59.046 133.033 58.096L131.202 51.5162M145.563 50.0513L131.202 51.5162M131.202 51.5162L128.21 51.8213M128.21 51.8213L120.868 52.5703C119.679 52.6915 118.861 53.8211 119.117 54.9882L120.09 59.428C120.173 59.8084 120.372 60.1539 120.659 60.4172V60.4172C121.058 60.7828 121.593 60.9606 122.131 60.9057L126.379 60.4724C127.396 60.3687 128.171 59.5149 128.176 58.4928L128.21 51.8213Z" stroke="black" stroke-width="4"/>
</svg>
