<svg width="2059" height="3388" viewBox="0 0 2059 3388" fill="none" xmlns="http://www.w3.org/2000/svg">
<mask id="mask0" mask-type="alpha" maskUnits="userSpaceOnUse" x="260" y="-2367" width="4798" height="4258">
<path fill-rule="evenodd" clip-rule="evenodd" d="M558.58 -1764.72C470.188 -1651.04 206.76 -1304.12 270.691 -1139.93C335.495 -972.783 639.265 -874.687 703.195 -710.49C767.125 -546.294 591.215 -315.999 626.929 -144.026C662.643 27.9467 910.854 144.545 960.676 312.63C1010.5 480.714 862.805 703.233 827.977 894.647C793.149 1086.06 871.188 1246.37 950.1 1409.63C1028.14 1569.93 1106.18 1730.24 1144.76 1808.92L1184.22 1890.55L3581.51 1229.86L3556.17 1144.34C3531.69 1061.77 3481.87 893.69 3432.05 725.606C3381.35 554.573 3331.53 386.488 3281.71 218.404C3231.89 50.3194 3182.06 -117.765 3132.24 -285.849C3082.42 -453.934 3031.72 -624.967 2981.9 -793.051C2932.08 -961.136 2832.44 -1297.3 2832.44 -1297.3L2682.1 -1804.51C2682.1 -1804.51 2582.45 -2140.68 2557.98 -2223.24L2532.63 -2308.76C2532.63 -2308.76 646.972 -1878.39 558.58 -1764.72Z" fill="url(#paint0_linear)"/>
<path fill-rule="evenodd" clip-rule="evenodd" d="M860.308 -1721.92C768.437 -1619.98 494.326 -1309.11 551.175 -1168.8C608.774 -1025.97 905.463 -951.758 962.312 -811.451C1019.16 -671.144 836.171 -464.738 864.803 -316.655C893.436 -168.571 1134.44 -76.2813 1177.18 67.9138C1219.92 212.109 1065.15 410.739 1023.24 578.263C981.332 745.788 1052.29 882.206 1124 1021.15C1194.95 1157.57 1265.91 1293.99 1301.02 1360.94L1336.87 1430.41L3734.17 769.721L3712.42 696.359C3691.43 625.526 3648.68 481.331 3605.94 337.136C3562.45 190.411 3519.71 46.2155 3476.97 -97.9796C3434.23 -242.175 3391.49 -386.37 3348.75 -530.565C3306.01 -674.76 3262.52 -821.485 3219.78 -965.68C3177.04 -1109.88 3091.55 -1398.27 3091.55 -1398.27L2962.58 -1833.38C2962.58 -1833.38 2877.1 -2121.77 2856.1 -2192.6L2834.36 -2265.97C2834.36 -2265.97 952.178 -1823.86 860.308 -1721.92Z" fill="url(#paint1_linear)"/>
<path fill-rule="evenodd" clip-rule="evenodd" d="M1410.32 -1609.8C1274.24 -1495.68 867.484 -1148.25 929.859 -1009.46C992.985 -868.15 1389.16 -821.359 1451.53 -682.575C1513.91 -543.792 1242.49 -313.014 1265.59 -163.408C1288.7 -13.8014 1607.08 57.1642 1649.82 201.359C1692.56 345.555 1460.41 565.509 1385.34 742.172C1310.28 918.836 1392.29 1052.21 1475.05 1188.11C1557.06 1321.48 1639.07 1454.86 1679.7 1520.28L1721.08 1588.23L5057.5 668.717L5035.76 595.354C5014.76 524.522 4972.02 380.326 4929.28 236.131C4885.79 89.4063 4843.05 -54.7889 4800.31 -198.984C4757.57 -343.179 4714.83 -487.374 4672.08 -631.569C4629.34 -775.765 4585.85 -922.489 4543.11 -1066.68C4500.37 -1210.88 4414.89 -1499.27 4414.89 -1499.27L4285.92 -1934.39C4285.92 -1934.39 4200.44 -2222.78 4179.44 -2293.61L4157.69 -2366.97C4157.69 -2366.97 1546.41 -1723.92 1410.32 -1609.8Z" fill="url(#paint2_linear)"/>
</mask>
<g mask="url(#mask0)">
<path d="M682.085 -0.0336914H2059V923.985H682.085V-0.0336914Z" fill="#5A00DB"/>
</g>
<defs>
<linearGradient id="paint0_linear" x1="3393.15" y1="2231.06" x2="-1185.16" y2="344.934" gradientUnits="userSpaceOnUse">
<stop stop-color="#5A00DB"/>
<stop offset="1" stop-color="#5A00DB" stop-opacity="0"/>
</linearGradient>
<linearGradient id="paint1_linear" x1="3508.84" y1="1646.19" x2="-633.206" y2="-447.012" gradientUnits="userSpaceOnUse">
<stop stop-color="#5A00DB"/>
<stop offset="1" stop-color="#5A00DB" stop-opacity="0"/>
</linearGradient>
<linearGradient id="paint2_linear" x1="4656.48" y1="1593.61" x2="313.362" y2="-1606.24" gradientUnits="userSpaceOnUse">
<stop stop-color="#5A00DB"/>
<stop offset="1" stop-color="#5A00DB" stop-opacity="0"/>
</linearGradient>
</defs>
</svg>
