<svg width="26" height="17" viewBox="0 0 26 17" fill="none" xmlns="http://www.w3.org/2000/svg">
<path d="M24.9871 14.7982L18.9198 1.67323C18.7041 1.20647 18.2341 0.907471 17.7167 0.907471H13.481L13.5874 1.85739C13.6091 2.05099 13.4481 2.21997 13.2419 2.21997H11.9763C11.7701 2.21997 11.6091 2.05099 11.6308 1.85739L11.7371 0.907471H7.50145C6.98365 0.907471 6.5136 1.20647 6.29789 1.67323L0.230612 14.7982C-0.170864 15.6674 0.469762 16.6575 1.43461 16.6575H9.97801L10.4255 12.6511C10.4628 12.3172 10.7606 12.0637 11.116 12.0637H14.1021C14.4576 12.0637 14.7554 12.3172 14.7927 12.6511L15.2402 16.6575H23.7836C24.7484 16.6575 25.389 15.6674 24.9871 14.7982ZM11.4112 3.82614C11.4202 3.7455 11.4605 3.67087 11.5243 3.61664C11.5881 3.56241 11.6708 3.53243 11.7567 3.53247H13.4619C13.6395 3.53247 13.7888 3.65921 13.8074 3.82614L14.0071 5.6136C14.0396 5.9044 13.7983 6.15747 13.4893 6.15747H11.7297C11.4203 6.15747 11.1794 5.9044 11.2119 5.6136L11.4112 3.82614ZM13.8087 10.7512H11.409C10.9967 10.7512 10.6751 10.4137 10.7185 10.0261L10.9385 8.05731C10.9758 7.72345 11.2736 7.46997 11.629 7.46997H13.5887C13.9442 7.46997 14.2419 7.72345 14.2792 8.05731L14.4993 10.0261C14.5427 10.4137 14.2211 10.7512 13.8087 10.7512Z" fill="#130846"/>
</svg>
