<svg width="319" height="411" viewBox="0 0 319 411" fill="none" xmlns="http://www.w3.org/2000/svg">
<path fill-rule="evenodd" clip-rule="evenodd" d="M271.883 252.491C274.929 247.408 278.23 245.077 281.427 242.79C282.581 240.892 283.899 241.646 284.436 245.816C287.492 269.558 289.322 297.506 292.79 320.404C295.638 339.093 298.636 357.465 301.781 375.501C302.427 379.215 309.406 407.59 300.189 397.335C296.704 393.457 291.403 392.864 289.182 402.079C287.532 408.894 284.895 405.056 284.826 398.875C284.767 398.619 284.686 398.506 284.632 398.174C277.84 358.844 272.258 314.992 271.098 266.979C270.894 265.893 270.646 264.915 270.472 263.72C269.924 259.927 270.707 254.436 271.884 252.47" fill="#000064"/>
<path d="M306.565 400.452C306.934 404.189 297.341 408.334 286.688 409.876C276.053 411.398 267.135 409.623 266.758 405.884C266.403 402.146 274.087 391.682 284.717 390.152C303.369 384.758 303.369 384.758 303.369 384.758" fill="#000064"/>
<path d="M243.214 241.656C246.124 207.413 256.803 227.746 264.193 228.644C267.235 229.002 284.401 275.74 282.432 281.217C280.579 286.357 259.93 284.768 259.93 284.768C259.93 284.768 253.392 357.017 254.021 393.743C254.145 401.359 250.881 406.538 248.545 402.758C244.267 395.85 239.629 395.19 234.485 396.981C231.927 397.855 230.422 392.666 231.182 385.972C234.184 359.516 236.231 341.07 238.37 314.943C240.78 285.537 241.838 257.834 243.213 241.677" fill="#000064"/>
<path d="M253.93 405.012C253.607 408.753 243.417 411.067 232.661 410.627C221.928 410.172 213.487 406.79 213.803 403.045C214.14 399.305 223.614 390.429 234.344 390.876C253.669 388.998 253.669 388.998 253.669 388.998" fill="#000064"/>
<rect x="159.589" y="38.1614" width="91.2851" height="127.888" rx="3" transform="rotate(14.9781 159.589 38.1614)" fill="#02005C"/>
<path d="M168.918 97.3907L202.005 106.256L201.386 108.567L168.299 99.7009L168.918 97.3907Z" fill="white"/>
<path d="M174.225 77.5898L207.312 86.4554L206.693 88.7656L173.606 79.9L174.225 77.5898Z" fill="white"/>
<path d="M163.614 117.191L196.701 126.056L196.082 128.367L162.995 119.501L163.614 117.191Z" fill="white"/>
<path d="M143.743 147.238L176.83 156.103L176.211 158.413L143.124 149.548L143.743 147.238Z" fill="white"/>
<path d="M169.979 93.4307L217.771 106.237L217.152 108.547L169.36 95.7409L169.979 93.4307Z" fill="white"/>
<path d="M175.286 73.6277L223.078 86.4336L222.459 88.7437L174.667 75.9379L175.286 73.6277Z" fill="white"/>
<path d="M164.674 113.232L212.466 126.038L211.847 128.348L164.055 115.542L164.674 113.232Z" fill="white"/>
<path d="M144.804 143.279L192.596 156.085L191.977 158.395L144.185 145.589L144.804 143.279Z" fill="white"/>
<path d="M171.041 89.4705L211.481 100.306L210.862 102.616L170.422 91.7807L171.041 89.4705Z" fill="white"/>
<path d="M176.346 69.6683L216.786 80.504L216.167 82.8142L175.727 71.9785L176.346 69.6683Z" fill="white"/>
<path d="M165.734 109.272L206.173 120.108L205.554 122.418L165.115 111.582L165.734 109.272Z" fill="white"/>
<path d="M145.864 139.318L186.303 150.154L185.684 152.464L145.245 141.629L145.864 139.318Z" fill="white"/>
<path d="M172.101 85.5105L227.246 100.286L226.627 102.597L171.482 87.8206L172.101 85.5105Z" fill="white"/>
<path d="M177.408 65.7081L232.553 80.4841L231.934 82.7942L176.789 68.0182L177.408 65.7081Z" fill="white"/>
<path d="M166.795 105.312L221.94 120.088L221.321 122.398L166.176 107.622L166.795 105.312Z" fill="white"/>
<path d="M169.487 80.5644L176.839 82.5346L176.22 84.8447L168.868 82.8746L169.487 80.5644Z" fill="white"/>
<path d="M164.358 99.7069L171.711 101.677L171.092 103.987L163.739 102.017L164.358 99.7069Z" fill="white"/>
<path d="M158.698 120.828L166.051 122.798L165.432 125.108L158.079 123.138L158.698 120.828Z" fill="white"/>
<path d="M145.546 125.793L185.986 136.629L185.367 138.939L144.927 128.103L145.546 125.793Z" fill="white"/>
<path d="M165.891 49.8875L206.331 60.7232L205.712 63.0334L165.272 52.1976L165.891 49.8875Z" fill="white"/>
<path d="M189.66 137.616L200.689 140.571L200.07 142.881L189.041 139.926L189.66 137.616Z" fill="white"/>
<path d="M210.001 61.7083L221.03 64.6635L220.411 66.9737L209.382 64.0185L210.001 61.7083Z" fill="white"/>
<path d="M143.779 132.394L151.131 134.364L150.512 136.674L143.16 134.704L143.779 132.394Z" fill="white"/>
<path d="M164.117 56.4876L171.47 58.4577L170.851 60.7679L163.498 58.7977L164.117 56.4876Z" fill="white"/>
<path d="M138.473 152.194L145.825 154.164L145.206 156.475L137.854 154.504L138.473 152.194Z" fill="white"/>
<path d="M237.914 233.769C237.914 233.769 248.323 166.521 250.085 166.335C257.181 165.577 252.763 240.729 259.826 239.657C266.4 238.628 272.641 236.037 279.324 236.116C279.469 236.116 279.564 236.192 279.705 236.209C281.986 235.688 284.796 237.229 284.736 240.636C284.651 245.866 285.854 250.634 286.882 255.67C287.28 257.611 286.279 259.622 284.725 260.491C274.87 265.992 275.081 266.559 254.601 270.826C249.259 268.861 237.75 262.046 237.75 262.046L237.914 233.769Z" fill="#000064"/>
<path opacity="0.6" d="M272.135 268.66L242.734 265.809L242.453 257.861L271.876 261.347L272.135 268.66Z" fill="#000064"/>
<path d="M244.933 260.44L252.229 261.153L251.962 265.455L245.188 264.615L245.284 262.536L250.902 263.133" stroke="#DBDBDB" stroke-width="1.5"/>
<path d="M286.576 133.317C280.33 135.835 277.089 136.609 274.717 146.193C272.855 153.667 271.352 162.073 272.734 167.941C274.213 174.185 285.683 171.972 290.449 167.941C295.99 163.25 296.766 152.178 299.156 141.929C299.143 132.577 295.029 129.918 286.575 133.32" fill="#FFCE99"/>
<path d="M301.122 109.237C293.368 102.248 289.701 97.9862 280.971 105.622C274.15 111.556 267.052 119.175 264.46 128.385C261.708 138.197 264.209 141.983 279.596 149.284C288.123 152.553 299.067 151.709 304.29 142.393C310.55 131.22 311.609 118.705 301.118 109.238" fill="#FFCE99"/>
<path d="M193.032 128.813C193.609 125.948 195.974 123.347 199.287 122.801C201.697 122.405 203.953 123.207 205.95 124.46C206.506 123.944 207.31 123.623 208.414 123.756C215.862 124.627 213.99 131.951 212.699 136.495C212.631 136.717 212.496 136.854 212.4 137.037C216.719 140.719 220.533 145.741 225.659 148.913L226.132 159.447C226.132 159.447 213.087 157.26 207.934 153.368C201.488 150.617 199.108 146.3 196.655 141.074C193.364 138.545 192.176 133.063 193.032 128.813Z" fill="#FFCE99"/>
<path d="M276.118 157.984C278.877 157.805 282.289 159.617 282.997 160.142C286.955 163.075 291.493 170.505 287.292 174.884C284.004 178.323 284.898 196.79 284.582 202.582C283.673 219.638 283.735 236.778 284.767 253.818C284.998 257.586 282.49 260.238 280.24 260.392C267.977 261.218 242.468 258.555 242.468 258.555C242.468 258.555 242.75 160.142 276.118 157.984Z" fill="white"/>
<path d="M222.111 145.249C222.111 145.249 243.101 167.96 254.694 178.811C254.262 178.148 255.378 179.43 254.694 178.811C255.125 179.473 254.544 178.187 254.633 178.754C256.402 181.359 253.762 185.179 250.149 184.547C228.406 180.755 217.247 165.625 200.613 148.082C199.454 146.864 198.366 145.648 197.239 144.427C202.915 142.445 213.668 141.922 222.111 145.249Z" fill="white"/>
<path d="M232.853 169.237C268.333 191.035 296.949 181.4 286.22 160.374L282.282 155.124C273.126 158.479 254.948 160.937 242.746 162.297C235.576 163.096 227.993 166.251 232.853 169.237Z" fill="#000064"/>
<path d="M286.044 155.024C287.913 155.477 291.846 156.64 294.406 157.409C295.799 157.827 296.684 159.172 296.519 160.618C295.609 168.57 292.876 193.952 292.876 211.869C292.876 238.923 295.54 262.237 296.612 270.525C296.838 272.269 295.543 273.841 293.789 273.961C292.279 274.064 290.665 274.183 289.951 274.261C281.692 275.153 273.782 281.173 265.547 282.618C264.052 282.888 256.516 245.447 255.764 241.696C255.721 241.477 255.706 241.301 255.713 241.079C255.896 235.18 259.043 148.472 286.044 155.024Z" fill="#000064"/>
<path d="M280.48 156.567L268.665 168.844L260.106 195.046L250.345 207.642L251.068 193.787L260.643 165.647C260.643 165.647 265.496 160.161 269.44 158.26C273.32 156.391 280.48 156.567 280.48 156.567Z" fill="#000064"/>
<path d="M258.119 179.805C246.242 169.721 224.74 148.171 224.74 148.171C216.088 145.741 205.067 147.757 199.249 150.654C200.404 151.813 201.518 152.971 202.705 154.123C219.746 170.711 246.417 197.796 256.328 184.19L258.119 179.805Z" fill="#000064"/>
<path d="M315.455 118.105C314.185 109.444 307.043 103.342 302.202 99.749C297.36 96.1557 280.595 97.6302 280.595 97.6302C280.595 97.6302 272.452 97.536 270.36 107.158C270.36 107.158 266.122 124.571 276.675 110.475C278.864 107.532 279.217 111.21 280.881 111.515C283.913 112.071 286.543 110.387 288.756 112.067C291.352 114.036 293.611 116.787 292.897 119.454C292.681 120.277 292.814 133.007 294.117 133.515C295.945 135.5 301.718 129.324 303.85 129.787C306.039 130.262 304.794 135.502 307.055 136.002C309.939 136.64 310.776 135.69 313.157 131.284C315.29 127.335 316.186 123.088 315.455 118.105Z" fill="#382800"/>
<path d="M248.496 187.818C271.136 181.621 296.448 179.177 289.852 162.145L287.024 157.955C277.876 161.213 260.406 164.171 248.728 165.914C243.472 166.699 241.786 165.915 238.525 163.678C237.351 162.603 236.145 161.759 234.949 161.224C236.386 162.175 237.529 162.995 238.525 163.678C244.621 169.254 249.879 181.025 248.496 187.818Z" fill="#000064"/>
<g clip-path="url(#clip0)">
<rect x="0.344727" y="323.452" width="87.2876" height="144.888" rx="3" transform="rotate(-90 0.344727 323.452)" fill="#000064"/>
<path d="M41.399 263.358H104.772V265.916H41.399V263.358Z" fill="white"/>
<path d="M20.277 299.896H83.6501V302.453H20.277V299.896Z" fill="white"/>
<path d="M41.3977 258.975H132.937V261.533H41.3977V258.975Z" fill="white"/>
<path d="M20.277 295.512H111.816V298.07H20.277V295.512Z" fill="white"/>
<path d="M41.3973 254.591H118.853V257.149H41.3973V254.591Z" fill="white"/>
<path d="M20.2725 291.129H97.7284V293.687H20.2725V291.129Z" fill="white"/>
<path d="M34.3556 268.477H48.4385V271.035H34.3556V268.477Z" fill="white"/>
<path d="M13.2295 277.244H90.6854V279.802H13.2295V277.244Z" fill="white"/>
</g>
<g clip-path="url(#clip1)">
<rect x="30.23" y="410.821" width="87.2876" height="144.888" rx="3" transform="rotate(-90 30.23 410.821)" fill="#000064"/>
<path d="M70.3501 351.659H133.723V354.217H70.3501V351.659Z" fill="white"/>
<path d="M49.2282 388.196H112.601V390.754H49.2282V388.196Z" fill="white"/>
<path d="M70.3489 347.275H161.888V349.833H70.3489V347.275Z" fill="white"/>
<path d="M49.2282 383.813H140.767V386.37H49.2282V383.813Z" fill="white"/>
<path d="M70.3485 342.892H147.804V345.45H70.3485V342.892Z" fill="white"/>
<path d="M49.2237 379.43H126.68V381.988H49.2237V379.43Z" fill="white"/>
<path d="M63.3067 356.778H77.3896V359.335H63.3067V356.778Z" fill="white"/>
<path d="M42.1807 365.544H119.637V368.102H42.1807V365.544Z" fill="white"/>
</g>
<defs>
<clipPath id="clip0">
<rect x="0.344727" y="323.452" width="87.2876" height="144.888" rx="3" transform="rotate(-90 0.344727 323.452)" fill="white"/>
</clipPath>
<clipPath id="clip1">
<rect x="30.23" y="410.821" width="87.2876" height="144.888" rx="3" transform="rotate(-90 30.23 410.821)" fill="white"/>
</clipPath>
</defs>
</svg>
