<svg width="992" height="305" viewBox="0 0 992 305" fill="none" xmlns="http://www.w3.org/2000/svg">
<path d="M525.227 59.5695V225.858H496.141V59.5695H525.227Z" fill="#000064"/>
<path d="M609.452 59.5695C628.333 59.5695 644.832 62.999 658.95 69.8579C673.238 76.5573 684.209 86.2873 691.863 99.048C699.688 111.649 703.6 126.404 703.6 143.312C703.6 160.22 699.688 174.895 691.863 187.336C684.209 199.778 673.238 209.349 658.95 216.048C644.832 222.588 628.333 225.858 609.452 225.858H551.535V59.5695H609.452ZM609.452 203.606C630.204 203.606 646.108 198.342 657.164 187.815C668.22 177.287 673.748 162.453 673.748 143.312C673.748 124.011 668.22 108.938 657.164 98.091C646.108 87.2444 630.204 81.8211 609.452 81.8211H580.621V203.606H609.452Z" fill="#000064"/>
<path d="M752.368 81.5818V130.392H813.602V152.643H752.368V203.606H821.257V225.858H723.282V59.3303H821.257V81.5818H752.368Z" fill="#000064"/>
<path d="M991.216 225.858H962.13L874.616 101.68V225.858H845.529V59.3303H874.616L962.13 183.269V59.3303H991.216V225.858Z" fill="#000064"/>
<path d="M525.227 59.5695V225.858H496.141V59.5695H525.227Z" fill="#000064"/>
<path d="M609.452 59.5695C628.333 59.5695 644.832 62.999 658.95 69.8579C673.238 76.5573 684.209 86.2873 691.863 99.048C699.688 111.649 703.6 126.404 703.6 143.312C703.6 160.22 699.688 174.895 691.863 187.336C684.209 199.778 673.238 209.349 658.95 216.048C644.832 222.588 628.333 225.858 609.452 225.858H551.535V59.5695H609.452ZM609.452 203.606C630.204 203.606 646.108 198.342 657.164 187.815C668.22 177.287 673.748 162.453 673.748 143.312C673.748 124.011 668.22 108.938 657.164 98.091C646.108 87.2444 630.204 81.8211 609.452 81.8211H580.621V203.606H609.452Z" fill="#000064"/>
<path d="M752.368 81.5818V130.392H813.602V152.643H752.368V203.606H821.257V225.858H723.282V59.3303H821.257V81.5818H752.368Z" fill="#000064"/>
<path d="M991.216 225.858H962.13L874.616 101.68V225.858H845.529V59.3303H874.616L962.13 183.269V59.3303H991.216V225.858Z" fill="#000064"/>
<path d="M431.39 191.58H356.487L343.617 225.856H312.987L377.079 57.8578H411.056L475.147 225.856H444.26L431.39 191.58ZM423.153 169.132L394.067 91.1677L364.724 169.132H423.153Z" fill="#000064"/>
<path d="M431.39 191.58H356.487L343.617 225.856H312.987L377.079 57.8578H411.056L475.147 225.856H444.26L431.39 191.58ZM423.153 169.132L394.067 91.1677L364.724 169.132H423.153Z" fill="#000064"/>
<path fill-rule="evenodd" clip-rule="evenodd" d="M158.88 304.383C242.7 304.383 307.432 236.277 307.432 152.265C307.432 68.2534 235.796 0.148193 151.976 0.148193C68.1562 0.148193 0.206787 68.2534 0.206787 152.265C0.206787 236.277 75.0602 304.383 158.88 304.383ZM137.056 223.776H107.497L167.702 123.738L151.028 97.3201L81.3228 223.776H51.5027L142.146 60.0204L159.648 59.9737C159.648 59.9737 184.835 103.565 189.256 110.855C194.749 124.593 186.039 145.249 186.039 145.249L137.056 223.776ZM191.657 223.776H163.916L195.101 172.642L191.196 164.829C185.225 154.824 201.299 131.593 201.299 131.593C201.299 131.593 252.813 223.068 253.448 223.974C248.806 223.958 223.08 223.776 223.08 223.776L207.513 196.574L191.657 223.776Z" fill="#000064"/>
</svg>
