<svg width="137" height="56" viewBox="0 0 137 56" fill="none" xmlns="http://www.w3.org/2000/svg">
<path fill-rule="evenodd" clip-rule="evenodd" d="M55.1127 28.0062C55.1127 43.0928 42.8827 55.3228 27.7962 55.3228C12.7096 55.3228 0.479614 43.0928 0.479614 28.0062C0.479614 12.9197 12.7096 0.689697 27.7962 0.689697C42.8827 0.689697 55.1127 12.9197 55.1127 28.0062ZM63.7974 11.9003V39.7464H59.2299V11.9003H63.7974ZM84.6588 13.6232C82.4418 12.4746 79.8508 11.9003 76.8859 11.9003H67.7909V39.7464H76.8859C79.8508 39.7464 82.4418 39.1988 84.6588 38.1036C86.9025 36.9818 88.6254 35.3791 89.8273 33.2957C91.056 31.2122 91.6704 28.7548 91.6704 25.9235C91.6704 23.0921 91.056 20.6214 89.8273 18.5112C88.6254 16.3744 86.9025 14.745 84.6588 13.6232ZM84.3783 33.3758C82.6421 35.1387 80.1447 36.0202 76.8859 36.0202H72.3585V15.6265H76.8859C80.1447 15.6265 82.6421 16.5346 84.3783 18.351C86.1145 20.1673 86.9826 22.6915 86.9826 25.9235C86.9826 29.1288 86.1145 31.6129 84.3783 33.3758ZM98.7615 15.5864V23.7599H108.377V27.4861H98.7615V36.0202H109.579V39.7464H94.1939V11.8602H109.579V15.5864H98.7615ZM131.512 39.7464H136.08V11.8602H131.512V32.6146L117.769 11.8602H113.202V39.7464H117.769V18.952L131.512 39.7464ZM25.0035 39.6185L20.5497 39.6339L29.7275 22.0421L26.7887 17.2074L15.7473 39.5579L10.8694 39.56L24.8453 11.7823L28.308 11.7741C28.308 11.7741 33.0035 19.7527 33.7827 21.0346C34.5619 22.3164 32.8713 25.322 32.8713 25.322L25.0035 39.6185ZM35.208 39.5833L30.6779 39.599C30.6779 39.599 33.4497 34.1909 35.2065 31.1622L34.1865 29.4571C33.1341 27.6977 34.4538 25.2594 35.0512 24.1558C35.0886 24.0868 35.1231 24.0231 35.154 23.9651C35.1965 23.8853 35.3731 23.7305 35.3731 23.7305C43.7495 38.3962 44.4339 39.3712 44.5458 39.5306C44.5547 39.5433 44.56 39.5508 44.5652 39.5596C43.747 39.5568 40.1656 39.5062 40.1656 39.5062C40.1656 39.5062 38.5418 36.8419 37.5879 35.0873C36.4347 36.8431 35.208 39.5833 35.208 39.5833Z" fill="black"/>
</svg>
