<svg width="1183" height="315" viewBox="0 0 1183 315" fill="none" xmlns="http://www.w3.org/2000/svg">
<path d="M621.227 64.5695V230.858H592.14V64.5695H621.227Z" fill="#000064"/>
<path d="M705.452 64.5695C724.333 64.5695 740.832 67.999 754.95 74.8579C769.238 81.5573 780.209 91.2873 787.863 104.048C795.688 116.649 799.6 131.404 799.6 148.312C799.6 165.22 795.688 179.895 787.863 192.336C780.209 204.778 769.238 214.349 754.95 221.048C740.832 227.588 724.333 230.858 705.452 230.858H647.535V64.5695H705.452ZM705.452 208.606C726.204 208.606 742.108 203.342 753.164 192.815C764.22 182.287 769.748 167.453 769.748 148.312C769.748 129.011 764.22 113.938 753.164 103.091C742.108 92.2444 726.204 86.8211 705.452 86.8211H676.621V208.606H705.452Z" fill="#000064"/>
<path d="M848.368 86.5818V135.392H909.602V157.643H848.368V208.606H917.257V230.858H819.282V64.3303H917.257V86.5818H848.368Z" fill="#000064"/>
<path d="M1087.22 230.858H1058.13L970.616 106.68V230.858H941.529V64.3303H970.616L1058.13 188.269V64.3303H1087.22V230.858Z" fill="#000064"/>
<path d="M621.227 64.5695V230.858H592.14V64.5695H621.227Z" fill="#000064"/>
<path d="M705.452 64.5695C724.333 64.5695 740.832 67.999 754.95 74.8579C769.238 81.5573 780.209 91.2873 787.863 104.048C795.688 116.649 799.6 131.404 799.6 148.312C799.6 165.22 795.688 179.895 787.863 192.336C780.209 204.778 769.238 214.349 754.95 221.048C740.832 227.588 724.333 230.858 705.452 230.858H647.535V64.5695H705.452ZM705.452 208.606C726.204 208.606 742.108 203.342 753.164 192.815C764.22 182.287 769.748 167.453 769.748 148.312C769.748 129.011 764.22 113.938 753.164 103.091C742.108 92.2444 726.204 86.8211 705.452 86.8211H676.621V208.606H705.452Z" fill="#000064"/>
<path d="M848.368 86.5818V135.392H909.602V157.643H848.368V208.606H917.257V230.858H819.282V64.3303H917.257V86.5818H848.368Z" fill="#000064"/>
<path d="M1087.22 230.858H1058.13L970.616 106.68V230.858H941.529V64.3303H970.616L1058.13 188.269V64.3303H1087.22V230.858Z" fill="#000064"/>
<path d="M527.39 196.58H452.487L439.617 230.856H408.987L473.079 62.8578H507.055L571.147 230.856H540.26L527.39 196.58ZM519.153 174.132L490.067 96.1677L460.724 174.132H519.153Z" fill="#000064"/>
<path d="M527.39 196.58H452.487L439.617 230.856H408.987L473.079 62.8578H507.055L571.147 230.856H540.26L527.39 196.58ZM519.153 174.132L490.067 96.1677L460.724 174.132H519.153Z" fill="#000064"/>
<path fill-rule="evenodd" clip-rule="evenodd" d="M254.88 309.383C338.7 309.383 403.432 241.277 403.432 157.265C403.432 73.2534 331.796 5.14819 247.976 5.14819C164.156 5.14819 96.2067 73.2534 96.2067 157.265C96.2067 241.277 171.06 309.383 254.88 309.383ZM233.056 228.776H203.497L263.702 128.738L247.028 102.32L177.323 228.776H147.503L238.146 65.0204L255.648 64.9737C255.648 64.9737 280.835 108.565 285.256 115.855C290.749 129.593 282.039 150.249 282.039 150.249L233.056 228.776ZM287.657 228.776H259.916L291.101 177.642L287.196 169.829C281.225 159.824 297.298 136.593 297.298 136.593C297.298 136.593 348.813 228.068 349.448 228.974C344.806 228.958 319.08 228.776 319.08 228.776L303.513 201.574L287.657 228.776Z" fill="#000064"/>
<path d="M414.049 285.556H422.03C424.796 285.556 426.809 284.946 428.069 283.725C429.224 282.538 429.802 281.147 429.802 279.553C429.802 277.992 429.224 276.619 428.069 275.431C426.809 274.21 424.796 273.6 422.03 273.6H414.049V285.556ZM414.049 268.766H420.35C422.801 268.766 424.481 268.274 425.391 267.291C426.231 266.409 426.651 265.374 426.651 264.187C426.651 263 426.231 261.965 425.391 261.083C424.481 260.1 422.801 259.608 420.35 259.608H414.049V268.766ZM422.976 290.39H408.798V254.774H421.295C424.446 254.774 426.966 255.605 428.857 257.267C430.887 259.065 431.902 261.321 431.902 264.034C431.902 266.511 430.94 268.631 429.014 270.394C430.8 271.242 432.252 272.531 433.373 274.261C434.493 275.957 435.053 277.789 435.053 279.756C435.053 283.148 433.705 285.896 431.01 287.999C429.049 289.593 426.371 290.39 422.976 290.39Z" fill="#000064"/>
<path d="M463.863 279.451H444.854C444.994 281.486 445.817 283.199 447.322 284.59C448.862 285.98 450.7 286.676 452.835 286.676C455.531 286.676 457.894 285.59 459.924 283.419L463.18 286.421C462.165 287.71 460.764 288.779 458.979 289.627C457.194 290.475 455.128 290.899 452.783 290.899C449.177 290.899 446.149 289.712 443.699 287.337C441.248 284.963 440.023 281.995 440.023 278.433C440.023 274.838 441.143 271.87 443.384 269.529C445.659 267.155 448.547 265.968 452.048 265.968C455.478 265.968 458.314 267.155 460.554 269.529C462.795 271.904 463.915 274.872 463.915 278.433C463.915 278.806 463.898 279.146 463.863 279.451ZM452.205 270.191C450.595 270.191 449.142 270.683 447.847 271.666C446.552 272.616 445.694 273.854 445.274 275.381H458.717C458.366 273.888 457.561 272.65 456.301 271.666C455.076 270.683 453.711 270.191 452.205 270.191Z" fill="#000064"/>
<path d="M488.748 290.39V288.202C486.683 290 484.145 290.899 481.134 290.899C478.824 290.899 476.758 290.373 474.938 289.322C473.013 288.236 471.472 286.744 470.317 284.844C469.197 282.911 468.637 280.774 468.637 278.433C468.637 276.093 469.214 273.956 470.37 272.022C471.525 270.089 473.065 268.58 474.991 267.494C476.776 266.477 478.789 265.968 481.029 265.968C484.005 265.968 486.578 266.867 488.748 268.664V266.477H493.579V290.39H488.748ZM488.591 282.911V273.956C486.805 271.683 484.46 270.547 481.554 270.547C479.244 270.547 477.336 271.327 475.831 272.887C474.36 274.414 473.625 276.262 473.625 278.433C473.625 280.604 474.395 282.47 475.936 284.03C477.511 285.556 479.471 286.32 481.817 286.32C484.582 286.32 486.84 285.183 488.591 282.911Z" fill="#000064"/>
<path d="M513.033 290.899C509.392 290.899 506.469 289.559 504.263 286.879C502.758 285.082 502.005 282.351 502.005 278.688V266.477H506.994V279.451C506.994 281.554 507.466 283.148 508.412 284.234C509.602 285.624 511.195 286.32 513.19 286.32C515.816 286.32 518.126 285.183 520.121 282.911V266.477H525.11V290.39H520.279V288.202C519.579 288.881 518.581 289.508 517.286 290.085C515.991 290.627 514.573 290.899 513.033 290.899Z" fill="#000064"/>
<path d="M548.246 286.014L549.244 290.39C548.194 290.729 546.899 290.899 545.358 290.899C542.418 290.899 540.09 289.966 538.374 288.1C537.044 286.676 536.379 284.556 536.379 281.74V270.801H530.078V266.477H536.379V259.862H541.367V266.477H549.244V270.801H541.367V281.995C541.367 283.487 541.613 284.505 542.103 285.048C542.803 285.896 543.94 286.32 545.516 286.32C546.601 286.32 547.511 286.218 548.246 286.014Z" fill="#000064"/>
<path d="M556.066 290.39V266.477H561.055V290.39H556.066ZM556.224 260.218C555.594 259.608 555.279 258.862 555.279 257.98C555.279 257.098 555.594 256.352 556.224 255.741C556.854 255.097 557.624 254.774 558.534 254.774C559.444 254.774 560.214 255.097 560.845 255.741C561.51 256.352 561.842 257.098 561.842 257.98C561.842 258.862 561.51 259.608 560.845 260.218C560.214 260.829 559.444 261.134 558.534 261.134C557.624 261.134 556.854 260.829 556.224 260.218Z" fill="#000064"/>
<path d="M585.191 254.113L584.141 258.539C583.651 258.404 583.038 258.336 582.303 258.336C580.657 258.336 579.397 258.896 578.522 260.015C577.892 260.829 577.577 262.254 577.577 264.289V266.477H585.191V270.801H577.577V290.39H572.588V270.801H566.812V266.477H572.588V264.441C572.588 261.423 573.113 259.184 574.164 257.725C576.054 255.08 578.75 253.757 582.25 253.757C583.405 253.757 584.386 253.876 585.191 254.113Z" fill="#000064"/>
<path d="M600.72 290.899C597.08 290.899 594.157 289.559 591.951 286.879C590.446 285.082 589.693 282.351 589.693 278.688V266.477H594.682V279.451C594.682 281.554 595.154 283.148 596.099 284.234C597.29 285.624 598.882 286.32 600.878 286.32C603.503 286.32 605.814 285.183 607.809 282.911V266.477H612.798V290.39H607.967V288.202C607.267 288.881 606.269 289.508 604.974 290.085C603.678 290.627 602.261 290.899 600.72 290.899Z" fill="#000064"/>
<path d="M621.704 290.39V254.266H626.692V290.39H621.704Z" fill="#000064"/>
<path d="M645.84 284.946L649.463 281.486C652.054 284.539 655.047 286.065 658.442 286.065C660.193 286.065 661.698 285.573 662.958 284.59C664.219 283.572 664.849 282.283 664.849 280.723C664.849 279.095 664.201 277.789 662.906 276.805C661.646 275.822 659.79 274.872 657.34 273.956C654.924 273.006 653.209 272.209 652.194 271.565C649.078 269.563 647.52 266.952 647.52 263.729C647.52 261.117 648.57 258.896 650.671 257.064C652.806 255.198 655.467 254.266 658.652 254.266C662.293 254.266 665.584 255.453 668.524 257.827L665.426 261.541C663.431 259.913 661.243 259.099 658.862 259.099C657.217 259.099 655.782 259.54 654.557 260.422C653.366 261.27 652.771 262.423 652.771 263.882C652.771 265.239 653.419 266.375 654.714 267.291C656.009 268.173 657.83 269.088 660.175 270.038C662.556 270.954 664.271 271.751 665.321 272.43C668.507 274.465 670.1 277.178 670.1 280.57C670.1 283.657 669.014 286.15 666.844 288.049C664.674 289.949 661.961 290.899 658.705 290.899C653.524 290.899 649.236 288.914 645.84 284.946Z" fill="#000064"/>
<path d="M694.896 282.605L698.73 285.302C697.714 286.964 696.192 288.321 694.161 289.372C692.131 290.39 689.995 290.899 687.755 290.899C683.974 290.899 680.824 289.712 678.303 287.337C675.818 284.963 674.575 281.995 674.575 278.433C674.575 274.872 675.8 271.904 678.251 269.529C680.701 267.155 683.764 265.968 687.44 265.968C689.54 265.968 691.518 266.443 693.374 267.392C695.229 268.308 696.752 269.563 697.942 271.158L694.266 274.159C692.481 271.751 690.205 270.547 687.44 270.547C685.199 270.547 683.327 271.293 681.821 272.786C680.316 274.278 679.563 276.161 679.563 278.433C679.563 280.774 680.334 282.673 681.874 284.132C683.414 285.59 685.374 286.32 687.755 286.32C690.59 286.32 692.971 285.082 694.896 282.605Z" fill="#000064"/>
<path d="M722.531 290.39V288.202C720.466 290 717.928 290.899 714.917 290.899C712.607 290.899 710.541 290.373 708.721 289.322C706.795 288.236 705.255 286.744 704.1 284.844C702.98 282.911 702.42 280.774 702.42 278.433C702.42 276.093 702.997 273.956 704.152 272.022C705.308 270.089 706.848 268.58 708.773 267.494C710.559 266.477 712.572 265.968 714.812 265.968C717.788 265.968 720.361 266.867 722.531 268.664V266.477H727.362V290.39H722.531ZM722.373 282.911V273.956C720.588 271.683 718.243 270.547 715.337 270.547C713.027 270.547 711.119 271.327 709.614 272.887C708.143 274.414 707.408 276.262 707.408 278.433C707.408 280.604 708.178 282.47 709.719 284.03C711.294 285.556 713.254 286.32 715.6 286.32C718.365 286.32 720.623 285.183 722.373 282.911Z" fill="#000064"/>
<path d="M736.313 290.39V254.266H741.302V290.39H736.313Z" fill="#000064"/>
<path d="M768.221 290.39V288.202C766.156 290 763.618 290.899 760.607 290.899C758.297 290.899 756.231 290.373 754.411 289.322C752.485 288.236 750.945 286.744 749.79 284.844C748.67 282.911 748.11 280.774 748.11 278.433C748.11 276.093 748.687 273.956 749.842 272.022C750.998 270.089 752.538 268.58 754.463 267.494C756.249 266.477 758.262 265.968 760.502 265.968C763.478 265.968 766.051 266.867 768.221 268.664V266.477H773.052V290.39H768.221ZM768.063 282.911V273.956C766.278 271.683 763.933 270.547 761.027 270.547C758.717 270.547 756.809 271.327 755.303 272.887C753.833 274.414 753.098 276.262 753.098 278.433C753.098 280.604 753.868 282.47 755.408 284.03C756.984 285.556 758.944 286.32 761.29 286.32C764.055 286.32 766.313 285.183 768.063 282.911Z" fill="#000064"/>
<path d="M786.834 288.202V290.39H782.003V254.266H786.992V268.563C789.127 266.833 791.648 265.968 794.553 265.968C796.794 265.968 798.806 266.477 800.592 267.494C802.517 268.58 804.057 270.089 805.213 272.022C806.368 273.956 806.945 276.093 806.945 278.433C806.945 280.774 806.368 282.911 805.213 284.844C804.092 286.744 802.57 288.236 800.644 289.322C798.824 290.373 796.759 290.899 794.448 290.899C791.437 290.899 788.9 290 786.834 288.202ZM786.992 273.956V282.911C788.742 285.183 791 286.32 793.765 286.32C796.111 286.32 798.054 285.556 799.594 284.03C801.169 282.47 801.957 280.604 801.957 278.433C801.957 276.262 801.204 274.414 799.699 272.887C798.229 271.327 796.338 270.547 794.028 270.547C791.122 270.547 788.777 271.683 786.992 273.956Z" fill="#000064"/>
<path d="M813.796 290.39V254.266H818.785V290.39H813.796Z" fill="#000064"/>
<path d="M849.432 279.451H830.424C830.564 281.486 831.386 283.199 832.892 284.59C834.432 285.98 836.27 286.676 838.405 286.676C841.101 286.676 843.464 285.59 845.494 283.419L848.75 286.421C847.734 287.71 846.334 288.779 844.549 289.627C842.764 290.475 840.698 290.899 838.353 290.899C834.747 290.899 831.719 289.712 829.268 287.337C826.818 284.963 825.593 281.995 825.593 278.433C825.593 274.838 826.713 271.87 828.953 269.529C831.229 267.155 834.117 265.968 837.618 265.968C841.048 265.968 843.884 267.155 846.124 269.529C848.365 271.904 849.485 274.872 849.485 278.433C849.485 278.806 849.467 279.146 849.432 279.451ZM837.775 270.191C836.165 270.191 834.712 270.683 833.417 271.666C832.121 272.616 831.264 273.854 830.844 275.381H844.286C843.936 273.888 843.131 272.65 841.871 271.666C840.646 270.683 839.28 270.191 837.775 270.191Z" fill="#000064"/>
<path d="M866.547 284.946L870.17 281.486C872.76 284.539 875.753 286.065 879.149 286.065C880.899 286.065 882.405 285.573 883.665 284.59C884.925 283.572 885.555 282.283 885.555 280.723C885.555 279.095 884.908 277.789 883.612 276.805C882.352 275.822 880.497 274.872 878.046 273.956C875.631 273.006 873.915 272.209 872.9 271.565C869.785 269.563 868.227 266.952 868.227 263.729C868.227 261.117 869.277 258.896 871.377 257.064C873.513 255.198 876.173 254.266 879.359 254.266C883 254.266 886.29 255.453 889.231 257.827L886.133 261.541C884.137 259.913 881.949 259.099 879.569 259.099C877.924 259.099 876.488 259.54 875.263 260.422C874.073 261.27 873.478 262.423 873.478 263.882C873.478 265.239 874.125 266.375 875.421 267.291C876.716 268.173 878.536 269.088 880.882 270.038C883.262 270.954 884.978 271.751 886.028 272.43C889.213 274.465 890.806 277.178 890.806 280.57C890.806 283.657 889.721 286.15 887.551 288.049C885.38 289.949 882.667 290.899 879.411 290.899C874.231 290.899 869.942 288.914 866.547 284.946Z" fill="#000064"/>
<path d="M898.905 287.337C896.489 284.963 895.281 281.995 895.281 278.433C895.281 274.872 896.489 271.904 898.905 269.529C901.355 267.155 904.401 265.968 908.041 265.968C911.682 265.968 914.71 267.155 917.126 269.529C919.576 271.904 920.801 274.872 920.801 278.433C920.801 281.995 919.576 284.963 917.126 287.337C914.71 289.712 911.682 290.899 908.041 290.899C904.401 290.899 901.355 289.712 898.905 287.337ZM902.475 272.837C901.005 274.363 900.27 276.229 900.27 278.433C900.27 280.638 901.005 282.504 902.475 284.03C903.946 285.556 905.801 286.32 908.041 286.32C910.282 286.32 912.137 285.556 913.607 284.03C915.078 282.504 915.813 280.638 915.813 278.433C915.813 276.229 915.078 274.363 913.607 272.837C912.137 271.31 910.282 270.547 908.041 270.547C905.801 270.547 903.946 271.31 902.475 272.837Z" fill="#000064"/>
<path d="M942.608 254.113L941.558 258.539C941.068 258.404 940.455 258.336 939.72 258.336C938.075 258.336 936.815 258.896 935.939 260.015C935.309 260.829 934.994 262.254 934.994 264.289V266.477H942.608V270.801H934.994V290.39H930.006V270.801H924.23V266.477H930.006V264.441C930.006 261.423 930.531 259.184 931.581 257.725C933.471 255.08 936.167 253.757 939.668 253.757C940.823 253.757 941.803 253.876 942.608 254.113Z" fill="#000064"/>
<path d="M963.661 286.014L964.658 290.39C963.608 290.729 962.313 290.899 960.773 290.899C957.832 290.899 955.504 289.966 953.789 288.1C952.459 286.676 951.793 284.556 951.793 281.74V270.801H945.492V266.477H951.793V259.862H956.782V266.477H964.658V270.801H956.782V281.995C956.782 283.487 957.027 284.505 957.517 285.048C958.217 285.896 959.355 286.32 960.93 286.32C962.015 286.32 962.926 286.218 963.661 286.014Z" fill="#000064"/>
<path d="M987.569 266.477H991.035L997.809 282.809L1004.58 266.477H1009.73L999.699 290.39H996.233L989.302 273.6L982.371 290.39H978.905L968.876 266.477H974.022L980.795 282.809L987.569 266.477Z" fill="#000064"/>
<path d="M1032.46 290.39V288.202C1030.4 290 1027.86 290.899 1024.85 290.899C1022.54 290.899 1020.47 290.373 1018.65 289.322C1016.73 288.236 1015.19 286.744 1014.03 284.844C1012.91 282.911 1012.35 280.774 1012.35 278.433C1012.35 276.093 1012.93 273.956 1014.09 272.022C1015.24 270.089 1016.78 268.58 1018.71 267.494C1020.49 266.477 1022.5 265.968 1024.74 265.968C1027.72 265.968 1030.29 266.867 1032.46 268.664V266.477H1037.29V290.39H1032.46ZM1032.31 282.911V273.956C1030.52 271.683 1028.18 270.547 1025.27 270.547C1022.96 270.547 1021.05 271.327 1019.55 272.887C1018.08 274.414 1017.34 276.262 1017.34 278.433C1017.34 280.604 1018.11 282.47 1019.65 284.03C1021.23 285.556 1023.19 286.32 1025.53 286.32C1028.3 286.32 1030.56 285.183 1032.31 282.911Z" fill="#000064"/>
<path d="M1060.42 266.12L1059.85 270.751C1059.32 270.615 1058.67 270.547 1057.9 270.547C1056.64 270.547 1055.38 270.937 1054.12 271.717C1052.9 272.463 1051.93 273.413 1051.23 274.566V290.39H1046.25V266.477H1051.08V269.224C1051.74 268.308 1052.72 267.545 1054.02 266.935C1055.31 266.29 1056.8 265.968 1058.48 265.968C1059.18 265.968 1059.83 266.019 1060.42 266.12Z" fill="#000064"/>
<path d="M1087.16 279.451H1068.15C1068.29 281.486 1069.12 283.199 1070.62 284.59C1072.16 285.98 1074 286.676 1076.14 286.676C1078.83 286.676 1081.19 285.59 1083.23 283.419L1086.48 286.421C1085.47 287.71 1084.07 288.779 1082.28 289.627C1080.49 290.475 1078.43 290.899 1076.08 290.899C1072.48 290.899 1069.45 289.712 1067 287.337C1064.55 284.963 1063.32 281.995 1063.32 278.433C1063.32 274.838 1064.44 271.87 1066.68 269.529C1068.96 267.155 1071.85 265.968 1075.35 265.968C1078.78 265.968 1081.62 267.155 1083.86 269.529C1086.1 271.904 1087.22 274.872 1087.22 278.433C1087.22 278.806 1087.2 279.146 1087.16 279.451ZM1075.51 270.191C1073.9 270.191 1072.44 270.683 1071.15 271.666C1069.85 272.616 1069 273.854 1068.58 275.381H1082.02C1081.67 273.888 1080.86 272.65 1079.6 271.666C1078.38 270.683 1077.01 270.191 1075.51 270.191Z" fill="#000064"/>
</svg>
