<svg width="79" height="23" viewBox="0 0 79 23" fill="none" xmlns="http://www.w3.org/2000/svg">
<path d="M25.3022 19.7035V3.15552H28.4936V19.7035H25.3022Z" fill="#8EF2D2"/>
<path d="M42.7703 15.0228C43.5741 14.0142 43.976 12.8164 43.976 11.4295C43.976 10.0426 43.5741 8.84487 42.7703 7.83624C41.7932 6.60696 40.3827 5.99232 38.5388 5.99232H36.1748V16.8667H38.5388C40.3827 16.8667 41.7932 16.2521 42.7703 15.0228ZM32.9834 3.15552H38.1842C40.5639 3.15552 42.463 3.6756 43.8814 4.71576C44.9058 5.47224 45.7096 6.44148 46.2927 7.62348C46.8758 8.80548 47.1674 10.0742 47.1674 11.4295C47.1674 12.7849 46.8758 14.0536 46.2927 15.2356C45.7096 16.4176 44.9058 17.3868 43.8814 18.1433C42.463 19.1834 40.5639 19.7035 38.1842 19.7035H32.9834V3.15552Z" fill="#8EF2D2"/>
<path d="M60.4049 5.99232H53.6675V9.42011H58.75V12.2569H53.6675V16.8667H60.6413V19.7035H50.4761V3.15552H60.4049V5.99232Z" fill="#8EF2D2"/>
<path d="M64.1826 19.7035V3.15552H66.4284L75.648 13.9354V3.15552H78.8394V19.7035H76.5936L67.374 8.92368V19.7035H64.1826Z" fill="#8EF2D2"/>
<path d="M14.1103 19.7423L16.7203 19.733C16.7203 19.733 17.427 18.1009 18.0914 17.0552C18.641 18.1002 19.5765 19.687 19.5765 19.687C19.5765 19.687 21.6399 19.7172 22.1113 19.7188C22.0703 19.6475 22.0242 19.7188 16.8154 10.2911C16.8154 10.2911 16.7137 10.3833 16.6891 10.4308C16.3861 11.0188 15.4875 12.5885 16.1318 13.7018L16.7194 14.7174C15.7073 16.5213 14.1103 19.7423 14.1103 19.7423Z" fill="#8EF2D2"/>
<path d="M8.27512 19.7631L10.8411 19.7539L15.374 11.239C15.374 11.239 16.348 9.44888 15.8991 8.68543C15.4502 7.92199 12.7449 3.16996 12.7449 3.16996L10.7499 3.17485L2.69796 19.7191L5.50829 19.7178L11.8696 6.40603L13.5628 9.2855L8.27512 19.7631Z" fill="#8EF2D2"/>
</svg>
