<svg width="992" height="309" viewBox="0 0 992 309" fill="none" xmlns="http://www.w3.org/2000/svg">
<path d="M525.671 50.2528V216.541H496.585V50.2528H525.671Z" fill="#000064"/>
<path d="M609.896 50.2528C628.777 50.2528 645.276 53.6822 659.394 60.5411C673.682 67.2405 684.653 76.9706 692.308 89.7313C700.132 102.332 704.044 117.087 704.044 133.995C704.044 150.903 700.132 165.578 692.308 178.02C684.653 190.461 673.682 200.032 659.394 206.731C645.276 213.271 628.777 216.541 609.896 216.541H551.979V50.2528H609.896ZM609.896 194.29C630.648 194.29 646.552 189.026 657.608 178.498C668.664 167.97 674.192 153.136 674.192 133.995C674.192 114.694 668.664 99.6208 657.608 88.7742C646.552 77.9276 630.648 72.5043 609.896 72.5043H581.065V194.29H609.896Z" fill="#000064"/>
<path d="M752.812 72.265V121.075H814.047V143.326H752.812V194.29H821.701V216.541H723.726V50.0135H821.701V72.265H752.812Z" fill="#000064"/>
<path d="M991.66 216.541H962.574L875.06 92.3632V216.541H845.973V50.0135H875.06L962.574 173.952V50.0135H991.66V216.541Z" fill="#000064"/>
<path d="M525.671 50.2528V216.541H496.585V50.2528H525.671Z" fill="#000064"/>
<path d="M609.896 50.2528C628.777 50.2528 645.276 53.6822 659.394 60.5411C673.682 67.2405 684.653 76.9706 692.308 89.7313C700.132 102.332 704.044 117.087 704.044 133.995C704.044 150.903 700.132 165.578 692.308 178.02C684.653 190.461 673.682 200.032 659.394 206.731C645.276 213.271 628.777 216.541 609.896 216.541H551.979V50.2528H609.896ZM609.896 194.29C630.648 194.29 646.552 189.026 657.608 178.498C668.664 167.97 674.192 153.136 674.192 133.995C674.192 114.694 668.664 99.6208 657.608 88.7742C646.552 77.9276 630.648 72.5043 609.896 72.5043H581.065V194.29H609.896Z" fill="#000064"/>
<path d="M752.812 72.265V121.075H814.047V143.326H752.812V194.29H821.701V216.541H723.726V50.0135H821.701V72.265H752.812Z" fill="#000064"/>
<path d="M991.66 216.541H962.574L875.06 92.3632V216.541H845.973V50.0135H875.06L962.574 173.952V50.0135H991.66V216.541Z" fill="#000064"/>
<path d="M436.834 182.263H361.932L349.062 216.539H318.432L382.523 48.541H416.5L480.591 216.539H449.704L436.834 182.263ZM428.597 159.815L399.511 81.8509L370.168 159.815H428.597Z" fill="#000064"/>
<path d="M436.834 182.263H361.932L349.062 216.539H318.432L382.523 48.541H416.5L480.591 216.539H449.704L436.834 182.263ZM428.597 159.815L399.511 81.8509L370.168 159.815H428.597Z" fill="#000064"/>
<path fill-rule="evenodd" clip-rule="evenodd" d="M161.092 308.946C246.19 308.946 311.909 239.907 311.909 154.743C311.909 69.5798 239.181 0.541016 154.083 0.541016C68.9853 0.541016 0 69.5798 0 154.743C0 239.907 75.9945 308.946 161.092 308.946ZM138.444 215.749H109.91L169.557 114.02L154.104 87.2399L81.8607 215.749H51.586L145.087 49.429L162.855 49.3817C162.855 49.3817 186.951 93.5708 191.439 100.96C197.016 114.886 188.173 135.826 188.173 135.826L138.444 215.749ZM189.788 215.749H165.713L197.828 163.328L193.409 155.675C187.347 145.532 204.677 121.399 204.677 121.399C204.677 121.399 257.226 214.83 257.871 215.749C253.158 215.733 228.177 215.749 228.177 215.749L210.07 184.386L189.788 215.749Z" fill="#000064"/>
</svg>
