<svg width="308" height="305" viewBox="0 0 308 305" fill="none" xmlns="http://www.w3.org/2000/svg">
<path fill-rule="evenodd" clip-rule="evenodd" d="M159.385 304.5C243.205 304.5 307.937 236.395 307.937 152.383C307.937 68.3706 236.301 0.265381 152.481 0.265381C68.6609 0.265381 0.711426 68.3706 0.711426 152.383C0.711426 236.395 75.5648 304.5 159.385 304.5ZM137.561 223.893L108.002 223.893L168.206 123.855L151.532 97.4373L81.8275 223.893H52.0074L142.651 60.1376L160.152 60.0909C160.152 60.0909 185.339 103.683 189.76 110.972C195.254 124.71 186.543 145.366 186.543 145.366L137.561 223.893ZM192.162 223.893H164.42L195.605 172.759L191.701 164.947C185.729 154.942 201.803 131.71 201.803 131.71C201.803 131.71 253.318 223.185 253.953 224.091C249.311 224.075 223.585 223.893 223.585 223.893L208.018 196.692L192.162 223.893Z" fill="#000064"/>
</svg>
