<svg width="1440" height="1024" viewBox="0 0 1440 1024" fill="none" xmlns="http://www.w3.org/2000/svg">
<path d="M-523.628 788.979C-384.309 827.337 612.896 1088.64 1212.89 882.527C1522.14 776.296 1928.11 789.474 1939.17 472.625C1950.24 155.775 1652.57 189.139 1418.77 92.3268C914.724 -116.39 479.376 200.363 -68.0088 195.455C-303.558 193.343 -434.455 102.03 -570.304 240.672C-702.723 375.815 -578.889 693.545 -547.008 768.402C-542.63 778.682 -534.4 786.013 -523.628 788.979ZM-404.894 1082.55C-260.394 1083.54 770.461 1077.84 1296.67 723.464C1567.88 540.814 1963.43 448.471 1892.11 139.555C1820.79 -169.362 1541.91 -60.0949 1291.01 -93.0963C750.12 -164.244 411.588 254.393 -118.416 391.326C-346.485 450.25 -496.556 395.927 -591.892 565.006C-684.822 729.817 -482.973 1004.67 -432.804 1068.72C-425.915 1077.52 -416.067 1082.47 -404.894 1082.55ZM-213.731 1336.33C-73.898 1299.89 920.357 1027.58 1336.92 549.084C1551.61 302.462 1909.78 110.892 1760.94 -169.04C1612.1 -448.972 1371 -271.248 1120.11 -238.19C579.234 -166.919 360.588 325.071 -115.915 594.513C-320.962 710.459 -479.98 696.828 -528.307 884.82C-575.414 1068.07 -309.306 1281.31 -244.267 1330.2C-235.336 1336.91 -224.543 1339.15 -213.731 1336.33ZM36.3842 1531.25C162.021 1459.86 1051.92 939.492 1330.44 369.488C1473.99 75.7017 1770.37 -202.042 1554.15 -433.912C1337.93 -665.783 1151.04 -431.713 917.262 -334.847C413.26 -126.016 329.4 405.801 -61.1297 789.39C-229.181 954.455 -386.308 982.444 -384.333 1176.54C-382.407 1365.73 -70.174 1502.84 5.30128 1533.23C15.6659 1537.4 26.6698 1536.77 36.3842 1531.25ZM328.387 1654.8C431.265 1553.33 1156.16 820.372 1277.66 197.704C1340.29 -123.226 1554.68 -468.215 1285.82 -636.222C1016.95 -804.229 897.012 -529.765 696.269 -375.693C263.49 -43.5323 320.133 491.867 42.1899 963.462C-77.4136 1166.4 -221.942 1234.1 -169.799 1421.07C-118.971 1603.32 218.108 1654.94 298.877 1664.76C309.968 1666.11 320.432 1662.65 328.387 1654.8ZM641.957 1700.55C715.066 1575.91 1225.56 680.311 1181.76 47.4123C1159.19 -278.79 1276.99 -667.514 973.801 -760.208C670.611 -852.902 625.798 -556.749 471.772 -355.971C139.71 76.8832 332.993 579.379 186.579 1106.84C123.575 1333.82 1.49362 1436.62 100.252 1603.72C196.517 1766.61 535.471 1729.23 616.029 1717.81C627.092 1716.24 636.304 1710.19 641.957 1700.55ZM958.971 1662.41C997.329 1523.09 1258.63 525.886 1052.52 -74.1121C946.288 -383.357 959.466 -789.325 642.617 -800.389C325.767 -811.454 359.131 -513.793 262.319 -279.992C53.602 224.058 370.355 659.406 365.447 1206.79C363.335 1442.34 272.021 1573.24 410.664 1709.09C545.807 1841.5 863.537 1717.67 938.394 1685.79C948.674 1681.41 956.005 1673.18 958.971 1662.41ZM1250.25 1543.6C1251.24 1399.1 1245.54 368.241 891.161 -157.967C708.511 -429.18 616.169 -824.726 307.252 -753.407C-1.66536 -682.087 107.602 -403.204 74.6005 -152.313C3.45295 388.581 422.09 727.114 559.023 1257.12C617.947 1485.19 563.624 1635.26 732.703 1730.59C897.513 1823.52 1172.37 1621.67 1236.42 1571.51C1245.22 1564.62 1250.17 1554.77 1250.25 1543.6ZM1491.53 1364.77C1457.18 1224.41 1199.8 226.185 727.599 -197.495C484.221 -415.864 298.038 -776.861 15.9072 -632.229C-266.223 -487.597 -92.1309 -243.861 -62.8346 7.48993C0.324842 549.375 488.985 775.367 751.258 1255.85C864.119 1462.61 848.106 1621.41 1035.35 1672.55C1217.87 1722.39 1435.08 1459.51 1484.94 1395.21C1491.79 1386.38 1494.18 1375.62 1491.53 1364.77ZM1690.07 1118.19C1620.57 991.503 1113.6 93.9096 547.832 -193.119C256.229 -341.057 -17.0431 -641.565 -252.127 -428.841C-487.21 -216.116 -255.967 -25.7442 -162.614 209.46C38.6433 716.534 569.144 808.351 946.839 1204.58C1109.37 1375.09 1135 1532.62 1329.1 1533.55C1518.31 1534.46 1660.07 1224.32 1691.59 1149.3C1695.92 1139 1695.45 1127.99 1690.07 1118.19ZM1820.91 825.204C1720.99 720.817 998.974 -14.9773 378.196 -145.795C58.2406 -213.219 -283.498 -432.76 -455.514 -166.439C-627.53 99.881 -354.893 223.916 -203.847 426.944C121.794 864.65 657.981 816.035 1125.36 1101.01C1326.48 1223.64 1392.01 1369.17 1579.74 1319.83C1762.73 1271.74 1819.4 935.473 1830.43 854.86C1831.94 843.79 1828.64 833.275 1820.91 825.204ZM1869.82 512.514C1746.29 437.546 858.438 -86.3062 224.955 -51.9967C-101.549 -34.3132 -488.464 -157.925 -585.69 143.842C-682.916 445.609 -387.467 494.853 -189.02 651.87C238.811 990.38 744.146 804.646 1269.36 958.946C1495.36 1025.34 1596.33 1148.95 1764.89 1052.71C1929.2 958.892 1896.9 619.417 1886.69 538.697C1885.29 527.612 1879.37 518.311 1869.82 512.514Z" stroke="url(#paint0_radial)"/>
<defs>
<radialGradient id="paint0_radial" cx="0" cy="0" r="1" gradientUnits="userSpaceOnUse" gradientTransform="translate(703.5 486) rotate(90) scale(964.5)">
<stop stop-color="#373737"/>
<stop offset="0.0001" stop-color="white"/>
<stop offset="0.546875" stop-color="white" stop-opacity="0.15"/>
</radialGradient>
</defs>
</svg>
