<svg width="416" height="263" viewBox="0 0 416 263" fill="none" xmlns="http://www.w3.org/2000/svg">
<path d="M348.321 116.276C349.066 116.476 349.521 117.197 349.336 117.887C349.151 118.576 348.397 118.973 347.652 118.774C346.907 118.574 346.453 117.853 346.637 117.163C346.831 116.477 347.577 116.077 348.321 116.276Z" fill="white"/>
<path d="M358.844 36.1385C361.779 36.925 363.572 39.7691 362.844 42.4853C362.116 45.2015 359.142 46.7683 356.206 45.9818C353.271 45.1953 351.479 42.3512 352.206 39.635C352.934 36.9187 355.9 35.3496 358.844 36.1385Z" stroke="black" stroke-miterlimit="10"/>
<path d="M224.872 177.957C227.553 178.675 229.188 181.269 228.523 183.75C227.858 186.231 225.146 187.659 222.465 186.941C219.783 186.222 218.149 183.629 218.814 181.148C219.479 178.667 222.191 177.239 224.872 177.957Z" fill="black"/>
<path d="M195.585 165.495L188.206 155.775" stroke="black" stroke-miterlimit="10"/>
<path d="M198.192 163.821L186.602 148.541" stroke="black" stroke-miterlimit="10"/>
<path d="M205.328 168.106L193.416 152.417" stroke="black" stroke-miterlimit="10"/>
<path d="M240.899 182.251L226.873 163.763" stroke="black" stroke-miterlimit="10"/>
<path d="M245.849 179.058L223.823 150.014" stroke="black" stroke-miterlimit="10"/>
<path d="M259.423 187.214L236.782 157.38" stroke="black" stroke-miterlimit="10"/>
<path d="M209.408 146.152C209.807 144.661 208.825 143.102 207.213 142.67C205.602 142.239 203.972 143.097 203.572 144.589C203.173 146.08 204.155 147.639 205.766 148.07C207.378 148.502 209.008 147.643 209.408 146.152Z" fill="white"/>
<path d="M268.232 160.011C269.844 160.443 270.826 162.001 270.426 163.493C270.027 164.984 268.397 165.843 266.785 165.411C265.173 164.979 264.191 163.421 264.591 161.929C264.99 160.437 266.62 159.579 268.232 160.011Z" fill="white"/>
<path d="M122.932 136.233C123.676 136.433 124.131 137.154 123.946 137.844C123.762 138.533 123.007 138.93 122.262 138.731C121.518 138.531 121.063 137.81 121.248 137.12C121.441 136.434 122.187 136.034 122.932 136.233Z" fill="white"/>
<path d="M100.989 144.762C101.388 143.271 100.406 141.712 98.7945 141.28C97.183 140.848 95.5527 141.707 95.1532 143.198C94.7536 144.69 95.7361 146.248 97.3476 146.68C98.9591 147.112 100.589 146.253 100.989 144.762Z" fill="white"/>
<path d="M311.796 122.453C313.409 122.885 314.391 124.443 313.991 125.935C313.591 127.427 311.962 128.285 310.35 127.853C308.737 127.421 307.755 125.863 308.155 124.371C308.555 122.879 310.184 122.021 311.796 122.453Z" fill="white"/>
<path d="M156.073 191.893C156.472 190.402 155.49 188.843 153.878 188.412C152.267 187.98 150.637 188.839 150.237 190.33C149.838 191.821 150.82 193.38 152.432 193.812C154.043 194.243 155.673 193.385 156.073 191.893Z" fill="white"/>
<path d="M307.446 150.608L312.721 144.027L301.091 137.313L307.446 150.608Z" fill="black"/>
<path d="M291.531 168.156L309.892 166.576L294.101 137.395L291.531 168.156Z" fill="black"/>
<path d="M85.4087 118.088L90.239 129.959L100.053 119.866L85.4087 118.088Z" fill="black"/>
<path d="M98.2689 -22.9133C89.2109 -14.0736 81.6167 -2.15276 82.0715 10.7688C82.4247 20.7983 87.9432 29.7742 94.8548 37.2888C102.631 45.7473 112.014 52.7513 121.063 59.9339C126.6 64.3328 131.831 68.9091 136.257 74.3506C141.021 80.2009 144.9 86.6851 147.738 93.5185C150.664 100.585 152.447 107.982 153.041 115.479C153.719 124.03 153.08 132.554 152.87 141.083C152.537 155.109 153.759 170.406 163.281 182.197C167.491 187.413 173.225 191.378 179.848 193.262C186.644 195.2 193.918 194.954 200.624 193.292C215.861 189.525 226.866 178.828 235.29 166.845C244.308 154.016 250.809 139.666 260.716 127.393C265.667 121.264 271.498 115.69 278.509 111.654C285.465 107.654 293.281 105.217 301.181 103.304C316.097 99.7034 331.819 97.801 345.261 90.4545C351.464 87.0652 356.97 82.5011 360.711 76.6847C364.46 70.837 366.29 64.0061 366.554 57.1156C367.781 24.7331 338.587 2.35182 314.924 -17.1738C301.698 -28.0893 289.073 -39.6479 280.622 -54.335C272.465 -68.5162 267.533 -84.1536 258.28 -97.8159C250.067 -109.952 238.234 -120.594 222.802 -122.978C208.134 -125.242 193.3 -120.312 181.649 -112.51C168.232 -103.524 158.334 -90.6119 149.032 -77.9925C144.043 -71.2207 139.229 -64.3014 133.706 -57.9071C128.249 -51.5955 122.268 -45.7262 116.167 -39.9808C113.25 -37.236 110.305 -34.5235 107.373 -31.7909C104.261 -28.8887 101.406 -25.7753 98.3669 -22.8117C98.1267 -22.5828 98.5103 -22.212 98.7504 -22.4408C101.779 -25.3989 105.103 -28.0934 108.211 -30.98C111.143 -33.7126 114.088 -36.4251 117.005 -39.1699C122.972 -44.7836 128.82 -50.5212 134.17 -56.6687C144.788 -68.86 153.101 -82.6989 163.825 -94.8198C173.821 -106.122 185.836 -116.054 201.135 -120.349C208.156 -122.321 215.685 -123.051 223.033 -121.836C230.697 -120.57 237.788 -117.162 243.755 -112.363C256.256 -102.312 263.247 -87.9492 269.612 -74.089C272.989 -66.7339 276.308 -59.3276 280.484 -52.3196C284.517 -45.5427 289.458 -39.3183 295.02 -33.5728C306.359 -21.8561 319.76 -12.1922 332.074 -1.4455C344.091 9.04537 355.718 21.0569 361.508 35.693C366.856 49.2135 367.364 65.2738 358.874 77.3317C350.516 89.1988 335.394 94.4702 321.236 97.7799C306.201 101.29 290.208 103.271 277.002 111.234C263.966 119.1 255.41 131.743 247.932 144.231C240.032 157.427 232.696 171.453 220.626 181.722C209.98 190.781 194.238 196.464 179.678 192.094C164.926 187.672 157.487 173.616 155.071 160.203C152.168 144.103 155.873 127.907 153.794 111.769C152.05 98.2509 146.314 85.1457 137.501 74.1813C129.682 64.4465 119.168 57.3238 109.497 49.3628C101.151 42.4942 92.7184 34.9824 87.5132 25.6381C82.1311 15.9867 81.962 5.40344 86.2114 -4.38124C89.1371 -11.128 93.5977 -17.095 98.8755 -22.3403C99.2139 -22.702 98.6302 -23.2605 98.2689 -22.9133Z" fill="url(#paint0_linear)"/>
<path d="M98.2689 -29.9133C89.2109 -21.0736 81.6167 -9.15276 82.0715 3.7688C82.4247 13.7983 87.9432 22.7742 94.8548 30.2888C102.631 38.7473 112.014 45.7513 121.063 52.9339C126.6 57.3328 131.831 61.9091 136.257 67.3506C141.021 73.2009 144.9 79.6851 147.738 86.5185C150.664 93.5853 152.447 100.982 153.041 108.479C153.719 117.03 153.08 125.554 152.87 134.083C152.537 148.109 153.759 163.406 163.281 175.197C167.491 180.413 173.225 184.378 179.848 186.262C186.644 188.2 193.918 187.954 200.624 186.292C215.861 182.525 226.866 171.828 235.29 159.845C244.308 147.016 250.809 132.666 260.716 120.393C265.667 114.264 271.498 108.69 278.509 104.654C285.465 100.654 293.281 98.217 301.181 96.3044C316.097 92.7034 331.819 90.801 345.261 83.4545C351.464 80.0652 356.97 75.5011 360.711 69.6847C364.46 63.837 366.29 57.0061 366.554 50.1156C367.781 17.7331 338.587 -4.64818 314.924 -24.1738C301.698 -35.0893 289.073 -46.6479 280.622 -61.335C272.465 -75.5162 267.533 -91.1536 258.28 -104.816C250.067 -116.952 238.234 -127.594 222.802 -129.978C208.134 -132.242 193.3 -127.312 181.649 -119.51C168.232 -110.524 158.334 -97.6119 149.032 -84.9925C144.043 -78.2207 139.229 -71.3014 133.706 -64.9071C128.249 -58.5955 122.268 -52.7262 116.167 -46.9808C113.25 -44.236 110.305 -41.5235 107.373 -38.7909C104.261 -35.8887 101.406 -32.7753 98.3669 -29.8117C98.1267 -29.5828 98.5103 -29.212 98.7504 -29.4408C101.779 -32.3989 105.103 -35.0934 108.211 -37.98C111.143 -40.7126 114.088 -43.4251 117.005 -46.1699C122.972 -51.7836 128.82 -57.5212 134.17 -63.6687C144.788 -75.86 153.101 -89.6989 163.825 -101.82C173.821 -113.122 185.836 -123.054 201.135 -127.349C208.156 -129.321 215.685 -130.051 223.033 -128.836C230.697 -127.57 237.788 -124.162 243.755 -119.363C256.256 -109.312 263.247 -94.9492 269.612 -81.089C272.989 -73.7339 276.308 -66.3276 280.484 -59.3196C284.517 -52.5427 289.458 -46.3183 295.02 -40.5728C306.359 -28.8561 319.76 -19.1922 332.074 -8.4455C344.091 2.04537 355.718 14.0569 361.508 28.693C366.856 42.2135 367.364 58.2738 358.874 70.3317C350.516 82.1988 335.394 87.4702 321.236 90.7799C306.201 94.2905 290.208 96.2709 277.002 104.234C263.966 112.1 255.41 124.743 247.932 137.231C240.032 150.427 232.696 164.453 220.626 174.722C209.98 183.781 194.238 189.464 179.678 185.094C164.926 180.672 157.487 166.616 155.071 153.203C152.168 137.103 155.873 120.907 153.794 104.769C152.05 91.2509 146.314 78.1457 137.501 67.1813C129.682 57.4465 119.168 50.3238 109.497 42.3628C101.151 35.4942 92.7184 27.9824 87.5132 18.6381C82.1311 8.98674 81.962 -1.59656 86.2114 -11.3812C89.1371 -18.128 93.5977 -24.095 98.8755 -29.3403C99.2139 -29.702 98.6302 -30.2605 98.2689 -29.9133Z" fill="url(#paint1_linear)"/>
<path d="M98.2689 -17.9133C89.2109 -9.07363 81.6167 2.84724 82.0715 15.7688C82.4247 25.7983 87.9432 34.7742 94.8548 42.2888C102.631 50.7473 112.014 57.7513 121.063 64.9339C126.6 69.3328 131.831 73.9091 136.257 79.3506C141.021 85.2009 144.9 91.6851 147.738 98.5185C150.664 105.585 152.447 112.982 153.041 120.479C153.719 129.03 153.08 137.554 152.87 146.083C152.537 160.109 153.759 175.406 163.281 187.197C167.491 192.413 173.225 196.378 179.848 198.262C186.644 200.2 193.918 199.954 200.624 198.292C215.861 194.525 226.866 183.828 235.29 171.845C244.308 159.016 250.809 144.666 260.716 132.393C265.667 126.264 271.498 120.69 278.509 116.654C285.465 112.654 293.281 110.217 301.181 108.304C316.097 104.703 331.819 102.801 345.261 95.4545C351.464 92.0652 356.97 87.5011 360.711 81.6847C364.46 75.837 366.29 69.0061 366.554 62.1156C367.781 29.7331 338.587 7.35182 314.924 -12.1738C301.698 -23.0893 289.073 -34.6479 280.622 -49.335C272.465 -63.5162 267.533 -79.1536 258.28 -92.8159C250.067 -104.952 238.234 -115.594 222.802 -117.978C208.134 -120.242 193.3 -115.312 181.649 -107.51C168.232 -98.5236 158.334 -85.6119 149.032 -72.9925C144.043 -66.2207 139.229 -59.3014 133.706 -52.9071C128.249 -46.5955 122.268 -40.7262 116.167 -34.9808C113.25 -32.236 110.305 -29.5235 107.373 -26.7909C104.261 -23.8887 101.406 -20.7753 98.3669 -17.8117C98.1267 -17.5828 98.5103 -17.212 98.7504 -17.4408C101.779 -20.3989 105.103 -23.0934 108.211 -25.98C111.143 -28.7126 114.088 -31.4251 117.005 -34.1699C122.972 -39.7836 128.82 -45.5212 134.17 -51.6687C144.788 -63.86 153.101 -77.6989 163.825 -89.8198C173.821 -101.122 185.836 -111.054 201.135 -115.349C208.156 -117.321 215.685 -118.051 223.033 -116.836C230.697 -115.57 237.788 -112.162 243.755 -107.363C256.256 -97.312 263.247 -82.9492 269.612 -69.089C272.989 -61.7339 276.308 -54.3276 280.484 -47.3196C284.517 -40.5427 289.458 -34.3183 295.02 -28.5728C306.359 -16.8561 319.76 -7.19217 332.074 3.5545C344.091 14.0454 355.718 26.0569 361.508 40.693C366.856 54.2135 367.364 70.2738 358.874 82.3317C350.516 94.1988 335.394 99.4702 321.236 102.78C306.201 106.29 290.208 108.271 277.002 116.234C263.966 124.1 255.41 136.743 247.932 149.231C240.032 162.427 232.696 176.453 220.626 186.722C209.98 195.781 194.238 201.464 179.678 197.094C164.926 192.672 157.487 178.616 155.071 165.203C152.168 149.103 155.873 132.907 153.794 116.769C152.05 103.251 146.314 90.1457 137.501 79.1813C129.682 69.4465 119.168 62.3238 109.497 54.3628C101.151 47.4942 92.7184 39.9824 87.5132 30.6381C82.1311 20.9867 81.962 10.4034 86.2114 0.618758C89.1371 -6.12802 93.5977 -12.095 98.8755 -17.3403C99.2139 -17.702 98.6302 -18.2605 98.2689 -17.9133Z" fill="url(#paint2_linear)"/>
<path d="M98.2689 -25.9133C89.2109 -17.0736 81.6167 -5.15276 82.0715 7.7688C82.4247 17.7983 87.9432 26.7742 94.8548 34.2888C102.631 42.7473 112.014 49.7513 121.063 56.9339C126.6 61.3328 131.831 65.9091 136.257 71.3506C141.021 77.2009 144.9 83.6851 147.738 90.5185C150.664 97.5853 152.447 104.982 153.041 112.479C153.719 121.03 153.08 129.554 152.87 138.083C152.537 152.109 153.759 167.406 163.281 179.197C167.491 184.413 173.225 188.378 179.848 190.262C186.644 192.2 193.918 191.954 200.624 190.292C215.861 186.525 226.866 175.828 235.29 163.845C244.308 151.016 250.809 136.666 260.716 124.393C265.667 118.264 271.498 112.69 278.509 108.654C285.465 104.654 293.281 102.217 301.181 100.304C316.097 96.7034 331.819 94.801 345.261 87.4545C351.464 84.0652 356.97 79.5011 360.711 73.6847C364.46 67.837 366.29 61.0061 366.554 54.1156C367.781 21.7331 338.587 -0.648183 314.924 -20.1738C301.698 -31.0893 289.073 -42.6479 280.622 -57.335C272.465 -71.5162 267.533 -87.1536 258.28 -100.816C250.067 -112.952 238.234 -123.594 222.802 -125.978C208.134 -128.242 193.3 -123.312 181.649 -115.51C168.232 -106.524 158.334 -93.6119 149.032 -80.9925C144.043 -74.2207 139.229 -67.3014 133.706 -60.9071C128.249 -54.5955 122.268 -48.7262 116.167 -42.9808C113.25 -40.236 110.305 -37.5235 107.373 -34.7909C104.261 -31.8887 101.406 -28.7753 98.3669 -25.8117C98.1267 -25.5828 98.5103 -25.212 98.7504 -25.4408C101.779 -28.3989 105.103 -31.0934 108.211 -33.98C111.143 -36.7126 114.088 -39.4251 117.005 -42.1699C122.972 -47.7836 128.82 -53.5212 134.17 -59.6687C144.788 -71.86 153.101 -85.6989 163.825 -97.8198C173.821 -109.122 185.836 -119.054 201.135 -123.349C208.156 -125.321 215.685 -126.051 223.033 -124.836C230.697 -123.57 237.788 -120.162 243.755 -115.363C256.256 -105.312 263.247 -90.9492 269.612 -77.089C272.989 -69.7339 276.308 -62.3276 280.484 -55.3196C284.517 -48.5427 289.458 -42.3183 295.02 -36.5728C306.359 -24.8561 319.76 -15.1922 332.074 -4.4455C344.091 6.04537 355.718 18.0569 361.508 32.693C366.856 46.2135 367.364 62.2738 358.874 74.3317C350.516 86.1988 335.394 91.4702 321.236 94.7799C306.201 98.2905 290.208 100.271 277.002 108.234C263.966 116.1 255.41 128.743 247.932 141.231C240.032 154.427 232.696 168.453 220.626 178.722C209.98 187.781 194.238 193.464 179.678 189.094C164.926 184.672 157.487 170.616 155.071 157.203C152.168 141.103 155.873 124.907 153.794 108.769C152.05 95.2509 146.314 82.1457 137.501 71.1813C129.682 61.4465 119.168 54.3238 109.497 46.3628C101.151 39.4942 92.7184 31.9824 87.5132 22.6381C82.1311 12.9867 81.962 2.40344 86.2114 -7.38124C89.1371 -14.128 93.5977 -20.095 98.8755 -25.3403C99.2139 -25.702 98.6302 -26.2605 98.2689 -25.9133Z" fill="url(#paint3_linear)"/>
<path d="M98.2689 -32.9133C89.2109 -24.0736 81.6167 -12.1528 82.0715 0.768798C82.4247 10.7983 87.9432 19.7742 94.8548 27.2888C102.631 35.7473 112.014 42.7513 121.063 49.9339C126.6 54.3328 131.831 58.9091 136.257 64.3506C141.021 70.2009 144.9 76.6851 147.738 83.5185C150.664 90.5853 152.447 97.9823 153.041 105.479C153.719 114.03 153.08 122.554 152.87 131.083C152.537 145.109 153.759 160.406 163.281 172.197C167.491 177.413 173.225 181.378 179.848 183.262C186.644 185.2 193.918 184.954 200.624 183.292C215.861 179.525 226.866 168.828 235.29 156.845C244.308 144.016 250.809 129.666 260.716 117.393C265.667 111.264 271.498 105.69 278.509 101.654C285.465 97.6544 293.281 95.217 301.181 93.3044C316.097 89.7034 331.819 87.801 345.261 80.4545C351.464 77.0652 356.97 72.5011 360.711 66.6847C364.46 60.837 366.29 54.0061 366.554 47.1156C367.781 14.7331 338.587 -7.64818 314.924 -27.1738C301.698 -38.0893 289.073 -49.6479 280.622 -64.335C272.465 -78.5162 267.533 -94.1536 258.28 -107.816C250.067 -119.952 238.234 -130.594 222.802 -132.978C208.134 -135.242 193.3 -130.312 181.649 -122.51C168.232 -113.524 158.334 -100.612 149.032 -87.9925C144.043 -81.2207 139.229 -74.3014 133.706 -67.9071C128.249 -61.5955 122.268 -55.7262 116.167 -49.9808C113.25 -47.236 110.305 -44.5235 107.373 -41.7909C104.261 -38.8887 101.406 -35.7753 98.3669 -32.8117C98.1267 -32.5828 98.5103 -32.212 98.7504 -32.4408C101.779 -35.3989 105.103 -38.0934 108.211 -40.98C111.143 -43.7126 114.088 -46.4251 117.005 -49.1699C122.972 -54.7836 128.82 -60.5212 134.17 -66.6687C144.788 -78.86 153.101 -92.6989 163.825 -104.82C173.821 -116.122 185.836 -126.054 201.135 -130.349C208.156 -132.321 215.685 -133.051 223.033 -131.836C230.697 -130.57 237.788 -127.162 243.755 -122.363C256.256 -112.312 263.247 -97.9492 269.612 -84.089C272.989 -76.7339 276.308 -69.3276 280.484 -62.3196C284.517 -55.5427 289.458 -49.3183 295.02 -43.5728C306.359 -31.8561 319.76 -22.1922 332.074 -11.4455C344.091 -0.954631 355.718 11.0569 361.508 25.693C366.856 39.2135 367.364 55.2738 358.874 67.3317C350.516 79.1988 335.394 84.4702 321.236 87.7799C306.201 91.2905 290.208 93.2709 277.002 101.234C263.966 109.1 255.41 121.743 247.932 134.231C240.032 147.427 232.696 161.453 220.626 171.722C209.98 180.781 194.238 186.464 179.678 182.094C164.926 177.672 157.487 163.616 155.071 150.203C152.168 134.103 155.873 117.907 153.794 101.769C152.05 88.2509 146.314 75.1457 137.501 64.1813C129.682 54.4465 119.168 47.3238 109.497 39.3628C101.151 32.4942 92.7184 24.9824 87.5132 15.6381C82.1311 5.98674 81.962 -4.59656 86.2114 -14.3812C89.1371 -21.128 93.5977 -27.095 98.8755 -32.3403C99.2139 -32.702 98.6302 -33.2605 98.2689 -32.9133Z" fill="url(#paint4_linear)"/>
<path d="M91.5903 -23.3022C82.114 -14.153 74.1833 -1.79988 74.7016 11.6177C75.1041 22.0323 80.9231 31.3693 88.1994 39.1936C96.3862 48.0006 106.254 55.3026 115.771 62.7888C121.596 67.3737 127.099 72.1419 131.761 77.8058C136.778 83.8951 140.869 90.6399 143.868 97.7439C146.961 105.091 148.856 112.776 149.502 120.562C150.241 129.442 149.598 138.29 149.404 147.146C149.099 161.707 150.43 177.594 160.459 189.866C164.893 195.295 170.922 199.431 177.878 201.407C185.015 203.442 192.647 203.21 199.678 201.504C215.654 197.643 227.167 186.571 235.969 174.156C245.391 160.864 252.167 145.986 262.523 133.274C267.698 126.927 273.799 121.157 281.142 116.99C288.429 112.859 296.623 110.353 304.906 108.392C320.546 104.701 337.036 102.776 351.118 95.1905C357.615 91.6912 363.379 86.9699 367.286 80.9427C371.201 74.8831 373.1 67.7966 373.354 60.6431C374.539 27.025 343.835 3.69406 318.943 -16.6542C305.03 -28.0296 291.746 -40.0708 282.832 -55.347C274.228 -70.097 269.003 -86.3487 259.251 -100.563C250.594 -113.19 238.144 -124.277 221.944 -126.802C206.546 -129.199 190.996 -124.127 178.796 -116.064C164.746 -106.776 154.401 -93.4013 144.681 -80.3285C139.467 -73.3133 134.438 -66.1444 128.663 -59.523C122.957 -52.987 116.7 -46.912 110.317 -40.9662C107.264 -38.1255 104.183 -35.3186 101.115 -32.4907C97.8589 -29.4873 94.8727 -26.2639 91.6935 -23.1964C91.4422 -22.9595 91.8458 -22.5733 92.0971 -22.8101C95.2654 -25.8718 98.7451 -28.6589 101.997 -31.6461C105.065 -34.474 108.146 -37.2809 111.199 -40.1216C117.442 -45.9311 123.56 -51.8698 129.153 -58.2356C140.256 -70.8598 148.936 -85.2021 160.15 -97.7529C170.602 -109.456 183.178 -119.73 199.217 -124.14C206.578 -126.166 214.476 -126.9 222.19 -125.615C230.236 -124.276 237.687 -120.715 243.964 -115.714C257.113 -105.238 264.494 -90.3032 271.217 -75.8922C274.784 -68.2449 278.289 -60.5444 282.694 -53.2549C286.947 -46.2058 292.152 -39.7274 298.006 -33.7442C309.941 -21.543 324.033 -11.4665 336.989 -0.269332C349.631 10.6613 361.87 23.1697 367.992 38.3844C373.646 52.4394 374.23 69.1162 365.36 81.6087C356.628 93.9034 340.777 99.3286 325.932 102.72C310.167 106.317 293.391 108.323 279.561 116.548C265.907 124.674 256.969 137.774 249.162 150.716C240.914 164.392 233.262 178.931 220.629 189.555C209.487 198.927 192.987 204.778 177.696 200.194C162.203 195.556 154.352 180.939 151.775 167.004C148.677 150.279 152.513 133.475 150.28 116.712C148.408 102.671 142.348 89.0461 133.065 77.6339C124.83 67.5016 113.775 60.0728 103.601 51.7763C94.8226 44.6182 85.9503 36.7921 80.4589 27.0736C74.7807 17.0356 74.5696 6.04667 78.9974 -4.09907C82.0459 -11.0948 86.7074 -17.276 92.2287 -22.7054C92.5826 -23.0798 91.9684 -23.6615 91.5903 -23.3022Z" fill="url(#paint5_linear)"/>
<g opacity="0.4248">
<path opacity="0.3" d="M67.3446 -40.3185C56.5113 -29.8556 47.4459 -15.7209 48.0492 -0.377346C48.5139 11.5225 55.1677 22.1956 63.4796 31.1317C72.8557 41.2133 84.1506 49.5669 95.0386 58.1417C101.716 63.3984 108.011 68.8567 113.356 75.3378C119.104 82.3096 123.803 90.043 127.227 98.1906C130.776 106.607 132.942 115.417 133.68 124.331C134.527 134.491 133.784 144.624 133.575 154.762C133.226 171.415 134.742 189.593 146.213 203.634C151.276 209.831 158.165 214.545 166.104 216.811C174.262 219.136 182.976 218.863 191.009 216.923C209.274 212.51 222.444 199.848 232.503 185.65C243.287 170.429 251.043 153.397 262.897 138.845C268.831 131.562 275.825 124.946 284.242 120.171C292.583 115.436 301.974 112.564 311.469 110.32C329.363 106.103 348.239 103.896 364.353 95.2127C371.782 91.2157 378.363 85.827 382.83 78.9334C387.306 72.0073 389.474 63.9153 389.768 55.7383C391.123 17.2816 355.985 -9.40991 327.503 -32.6928C311.572 -45.7213 296.352 -59.5067 286.148 -77.0143C276.304 -93.9039 270.319 -112.506 259.155 -128.776C249.255 -143.213 235.024 -155.89 216.496 -158.769C198.896 -161.503 181.113 -155.701 167.166 -146.481C151.096 -135.857 139.257 -120.554 128.142 -105.604C122.166 -97.5674 116.406 -89.3518 109.79 -81.765C103.259 -74.2858 96.0965 -67.3235 88.7806 -60.524C85.2887 -57.2709 81.7595 -54.0539 78.2457 -50.8241C74.5177 -47.3909 71.0661 -43.7273 67.4302 -40.2173C67.1789 -39.9805 67.5826 -39.5943 67.8339 -39.8311C71.4588 -43.3353 75.4127 -46.5602 79.1297 -49.9876C82.6436 -53.2174 86.1662 -56.4448 89.6646 -59.6875C96.808 -66.3334 103.813 -73.1293 110.217 -80.4164C122.927 -94.8694 132.859 -111.292 145.697 -125.659C157.675 -139.065 172.079 -150.831 190.453 -155.893C198.888 -158.212 207.95 -159.051 216.796 -157.576C226.03 -156.041 234.562 -151.956 241.766 -146.21C256.825 -134.206 265.279 -117.107 272.982 -100.608C277.068 -91.8482 281.076 -83.0401 286.118 -74.6934C290.982 -66.629 296.941 -59.2184 303.635 -52.3757C317.304 -38.4064 333.437 -26.8705 348.268 -14.0498C362.755 -1.52122 376.771 12.8017 383.782 30.236C390.257 46.3446 390.927 65.4691 380.752 79.7844C370.741 93.8741 352.58 100.105 335.554 103.99C317.518 108.109 298.317 110.403 282.488 119.814C266.868 129.107 256.644 144.096 247.718 158.902C238.273 174.56 229.5 191.215 215.046 203.376C202.278 214.12 183.352 220.824 165.815 215.577C148.052 210.262 139.039 193.499 136.079 177.524C132.532 158.376 136.93 139.123 134.363 119.925C132.222 103.874 125.28 88.2834 114.671 75.2298C105.242 63.6304 92.5956 55.132 80.9569 45.6434C70.8994 37.4389 60.7439 28.4781 54.4483 17.3448C47.9372 5.82362 47.6966 -6.7723 52.789 -18.4172C56.2886 -26.4305 61.6225 -33.509 67.9545 -39.7206C68.3303 -40.1065 67.716 -40.6883 67.3446 -40.3185Z" fill="url(#paint6_linear)"/>
</g>
<path d="M281.213 -45.9131C272.618 -58.4533 267.846 -72.6804 260.546 -85.8123C254.184 -97.2588 245.241 -108.606 232.425 -114.23C220.053 -119.648 206.122 -118.41 194.207 -113.582C180.933 -108.205 170.656 -98.5225 161.881 -88.0643C152.291 -76.6339 144.451 -63.9524 134.289 -52.9447C124.157 -41.9809 112.323 -32.5856 101.9 -21.8999C94.0019 -13.805 87.5985 -2.98067 88.0624 8.50185C88.4179 17.3395 93.0672 25.3638 99.0759 32.1706C105.934 39.9436 114.37 46.3841 122.591 52.8191C127.312 56.5088 132.064 60.1546 136.192 64.4498C140.801 69.2567 144.725 74.6271 147.848 80.3565C151.054 86.23 153.397 92.489 154.789 98.8932C156.392 106.266 156.48 113.755 156.283 121.184C155.921 134.696 154.829 148.586 160.612 161.564C163.047 167.022 166.635 172.137 171.628 175.9C176.612 179.66 182.685 181.774 188.95 182.227C202.384 183.193 214.996 177.274 224.084 168.733C244.628 149.436 250.4 118.046 276.669 103.777C289.419 96.8515 304.507 95.2891 318.657 91.8675C331.229 88.8313 344.199 84.0597 352.146 74.1356C360.259 64.0126 361.132 50.2378 357.637 37.9777C353.863 24.722 344.819 13.3303 334.627 3.56016C332.056 1.09844 329.406 -1.28009 326.695 -3.60548C323.91 -6.00301 320.88 -8.08372 318.027 -10.4038C317.748 -10.6262 317.353 -10.2716 317.629 -10.0411C320.46 -7.74429 323.071 -5.18499 325.826 -2.81307C328.596 -0.428345 331.324 2.0061 333.953 4.53527C339.128 9.51102 343.949 14.8264 347.954 20.662C355.682 31.9183 360.122 45.4916 357.76 58.5808C356.628 64.8734 353.834 70.7814 349.353 75.5163C344.977 80.1403 339.331 83.5114 333.311 86.0349C320.626 91.3523 306.547 92.794 293.199 96.3087C286.56 98.0581 280.049 100.346 274.252 103.789C268.423 107.25 263.447 111.8 259.162 116.822C250.349 127.14 244.386 139.23 237.11 150.507C229.864 161.74 220.865 172.72 207.58 177.998C195.546 182.778 180.612 182.574 170.39 173.369C160.471 164.437 157.542 150.904 157.21 138.787C156.82 124.613 159.026 110.457 155.445 96.375C152.43 84.4956 146.139 73.2418 137.379 64.012C129.91 56.1361 120.494 49.9892 112.134 42.9867C104.765 36.806 97.4446 29.9867 92.996 21.6339C88.3848 12.9768 88.2842 3.57305 91.929 -5.12263C97.3603 -18.1019 109.094 -27.1591 119.38 -36.665C124.797 -41.6704 130.157 -46.7432 135.135 -52.1443C139.939 -57.3488 144.197 -62.8994 148.371 -68.5594C163.938 -89.6075 182.328 -115.444 213.003 -116.714C219.765 -116.997 226.596 -115.783 232.774 -112.902C239.068 -109.965 244.457 -105.54 248.966 -100.499C258.626 -89.7246 263.996 -76.6061 270.047 -64.0001C273.097 -57.6472 276.376 -51.3804 280.472 -45.5295C280.786 -45.089 281.518 -45.475 281.213 -45.9131Z" fill="url(#paint7_linear)"/>
<defs>
<linearGradient id="paint0_linear" x1="82.6223" y1="3.20997" x2="362.056" y2="78.0841" gradientUnits="userSpaceOnUse">
<stop stop-color="#30E0A1"/>
<stop offset="1" stop-color="white"/>
</linearGradient>
<linearGradient id="paint1_linear" x1="82.6223" y1="-3.79003" x2="362.056" y2="71.0841" gradientUnits="userSpaceOnUse">
<stop stop-opacity="0.125"/>
<stop offset="1" stop-color="white"/>
</linearGradient>
<linearGradient id="paint2_linear" x1="82.6223" y1="8.20997" x2="362.056" y2="83.0841" gradientUnits="userSpaceOnUse">
<stop stop-opacity="0.125"/>
<stop offset="1" stop-color="white"/>
</linearGradient>
<linearGradient id="paint3_linear" x1="82.6223" y1="0.20997" x2="362.056" y2="75.0841" gradientUnits="userSpaceOnUse">
<stop stop-opacity="0.125"/>
<stop offset="1" stop-color="#638FFE"/>
</linearGradient>
<linearGradient id="paint4_linear" x1="82.6223" y1="-6.79003" x2="362.056" y2="68.0841" gradientUnits="userSpaceOnUse">
<stop stop-opacity="0.125"/>
<stop offset="1" stop-color="white"/>
</linearGradient>
<linearGradient id="paint5_linear" x1="75.2555" y1="3.77132" x2="368.702" y2="82.4" gradientUnits="userSpaceOnUse">
<stop stop-opacity="0.125"/>
<stop offset="1" stop-color="#30E0A1"/>
</linearGradient>
<linearGradient id="paint6_linear" x1="167.889" y1="217.29" x2="265.238" y2="-146.019" gradientUnits="userSpaceOnUse">
<stop stop-color="white"/>
<stop offset="0.6103" stop-color="#3F4541"/>
<stop offset="1" stop-color="#313C40"/>
</linearGradient>
<linearGradient id="paint7_linear" x1="88.554" y1="1.35523" x2="355.33" y2="72.8375" gradientUnits="userSpaceOnUse">
<stop stop-opacity="0.01"/>
<stop offset="0.9999" stop-color="#638FFE"/>
<stop offset="1" stop-opacity="0"/>
</linearGradient>
</defs>
</svg>
