<svg width="223" height="27" viewBox="0 0 223 27" fill="none" xmlns="http://www.w3.org/2000/svg">
<path d="M52.4165 20.8512H42.1529L40.0653 26.7751H35.7048L45.5759 0.224249H48.9989L58.8428 26.7751H54.4823L52.4165 20.8512ZM51.2391 17.269L47.331 5.66702H47.2547L43.3302 17.2637L51.2391 17.269Z" fill="white"/>
<path d="M69.1609 0.224249H73.2707V26.7751H69.1609V0.224249Z" fill="white"/>
<path d="M85.3984 0.224249H89.5028V22.9898H102.693V26.7965H85.3984V0.224249Z" fill="white"/>
<path d="M142.576 0.224249H146.686V17.3332C146.686 20.9902 149.079 22.9631 152.196 22.9631C155.314 22.9631 157.707 20.9902 157.707 17.3332V0.224249H161.795V17.7876C161.795 23.3052 157.538 26.9997 152.174 26.9997C146.811 26.9997 142.554 23.3052 142.554 17.7876L142.576 0.224249Z" fill="white"/>
<path d="M173.716 0.224249H177.602L189.844 19.0922H189.915V0.224249H194.025V26.7751H190.138L177.896 7.90722H177.82V26.7751H173.716V0.224249Z" fill="white"/>
<path d="M127.151 7.86983H131.511C130.65 3.54448 127.118 -0.000272782 122.005 -0.000272782C120.286 -0.020876 118.593 0.411233 117.102 1.251C115.611 2.09077 114.378 3.30745 113.529 4.77418C112.864 5.96111 112.526 6.70428 112.406 9.78389C112.406 9.78389 112.347 12.4839 112.347 13.5265C112.347 14.4033 112.347 15.1732 112.347 15.8522V26.4383H116.554V9.23319C116.729 7.4528 117.099 6.8326 117.786 5.96646C118.287 5.34369 118.93 4.84404 119.662 4.50716C120.394 4.17027 121.196 4.00541 122.005 4.02567C123.169 4.04364 124.296 4.4265 125.222 5.11822C126.148 5.80993 126.824 6.77418 127.151 7.86983Z" fill="white"/>
<path d="M122.021 12.1578V15.9592H127.39V26.4117H131.62L131.642 12.1578H122.021Z" fill="white"/>
<path d="M203.988 24.9092H223V26.7752H203.988V24.9092Z" fill="white"/>
<path d="M0.47168 3.47502H17.3687V7.75225H0.47168V3.47502Z" fill="white"/>
<path d="M20.1813 14.97C21.7403 14.4611 23.0917 13.4748 24.0366 12.1562C24.9815 10.8377 25.47 9.25648 25.4303 7.64524C25.4205 6.56353 25.1718 5.49675 24.7013 4.51837C24.2308 3.54 23.5497 2.67328 22.7049 1.97791C21.2823 0.748209 19.4999 0.224249 17.2161 0.224249H6.64728V3.80108H17.178C18.2467 3.7196 19.3105 4.01123 20.1813 4.62445C20.6402 4.98288 21.0042 5.44464 21.2424 5.97053C21.4806 6.49641 21.5859 7.07091 21.5494 7.64524C21.5494 9.88009 20.0287 11.8583 16.949 11.8583H6.64728V26.7751H10.7516V15.4405H16.0006L21.5875 26.7751H26.455L20.1813 14.97Z" fill="white"/>
</svg>
