<svg width="223" height="266" viewBox="0 0 223 266" fill="none" xmlns="http://www.w3.org/2000/svg">
<path d="M-495 292C-15.6795 292 463.641 292 942.962 292M-495 283.838C-252.284 283.898 -9.68799 282.439 232.968 280.788C337.959 280.069 443.669 280.305 548.651 281.819C680.064 283.712 811.538 281.929 942.922 283.838M-495 275.796C-426.227 275.796 -357.435 276.087 -288.673 275.944C-227.22 275.818 -165.907 273.081 -104.474 272.609C9.96413 271.732 124.382 272.752 238.81 271.715C340.376 270.794 442.99 268.353 544.486 272.077C603.642 274.271 662.19 275.27 721.396 276.175C795.291 277.305 869.096 274.238 942.962 275.796M-495 267.864C-427.216 267.864 -359.252 268.49 -291.488 267.815C-227.809 267.179 -164.499 262.719 -100.869 261.573C13.7887 259.505 127.547 265.412 242.085 264.359C342.872 263.449 442.231 256.054 543.128 262.67C602.105 266.537 659.254 269.565 718.66 270.448C793.553 271.545 868.078 266.208 942.962 267.864M-495 260.086C-428.444 260.086 -361.399 261.084 -294.894 259.708C-228.388 258.331 -162.831 251.995 -96.5249 249.949C-36.2503 248.089 23.1754 248.589 83.1304 252.637C136.864 256.268 189.06 258.89 243.234 258.495C290.716 258.144 335.203 254.184 382.097 250.492C435.761 246.263 491.012 248.238 544.177 253.624C602.694 259.559 657.886 265.237 717.641 265.884C793.014 266.707 867.538 258.665 942.962 260.086M-495 252.417C-429.882 252.417 -363.776 253.761 -298.768 251.611C-229.307 249.318 -161.023 241.013 -91.7117 237.898C-32.2006 235.188 27.7077 237.045 86.2859 243.416C138.582 249.022 189.14 254.03 242.594 253.8C292.094 253.586 336.881 246.702 384.933 241.134C439.475 234.815 493.449 237.212 547.163 244.875C604.731 253.103 657.876 261.968 718.04 262.203C793.543 262.505 867.329 251.496 942.962 252.423M-495 244.87C-431.42 244.837 -366.282 246.515 -302.922 243.581C-230.185 240.24 -159.126 229.933 -86.6588 225.627C-25.8451 222.017 30.3553 225.375 89.0121 234.442C139.231 242.209 187.872 249.987 240.547 250.004C292.633 250.004 338.968 239.664 388.398 232.116C444.708 223.52 496.634 226.022 551.656 236.406C607.657 246.971 659.074 259.444 719.568 259.17C794.961 258.797 867.359 244.617 942.962 244.87M-495 237.442C-433.028 237.393 -368.869 239.258 -307.266 235.649C-231.194 231.194 -157.478 218.896 -81.6759 213.345C-20.0133 208.831 33.5107 213.658 91.2189 225.737C138.831 235.703 185.595 246.504 237.412 246.844C292.174 247.206 341.544 233.005 392.192 223.444C450.679 212.402 500.619 214.749 557.138 228.205C610.962 241.019 661.151 257.469 721.905 256.548C797.028 255.407 867.518 237.969 942.942 237.442M-495 230.136C-434.616 230.07 -371.455 232.056 -311.52 227.848C-232.193 222.281 -155.811 208.052 -76.8528 201.261C-13.942 195.847 36.5465 202.045 93.0364 217.306C137.713 229.373 182.589 243.312 233.687 244.047C291.126 244.864 344.46 226.417 396.276 215.078C423.418 209.171 452.027 203.636 481.616 204.909C510.574 206.159 537.996 212.857 563.32 220.268C614.367 235.171 664.097 255.687 724.841 254.118C799.635 252.182 867.768 231.496 942.972 230.152M-494.951 222.955C-436.034 222.873 -373.902 224.908 -315.605 220.213C-233.252 213.597 -154.483 197.53 -72.5994 189.566C-8.25062 183.301 39.3219 190.756 94.284 209.16C135.955 223.114 178.954 240.168 229.592 241.326C289.507 242.692 347.425 219.905 400.23 207.009C427.891 200.251 458.398 193.126 489.294 194.695C518.253 196.165 545.384 204.195 569.6 212.522C617.882 229.132 667.102 253.789 727.996 251.589C802.47 248.89 867.977 225.062 942.981 222.955M-494.94 215.901C-437.431 215.802 -376.218 217.838 -319.409 212.796C-234.369 205.243 -153.484 187.481 -69.0637 178.452C-36.9192 175.019 -6.45241 173.033 25.033 179.056C50.6866 183.965 73.2545 192.583 95.0237 201.294C133.968 216.867 175.08 236.839 225.599 238.402C287.711 240.328 350.282 213.411 403.946 199.198C432.086 191.744 464.47 183.11 496.545 184.936C525.633 186.582 552.405 195.836 575.582 204.974C621.298 222.988 669.929 251.501 731.152 248.742C805.357 245.391 868.148 218.611 943.022 215.874M-494.93 208.962C-438.63 208.858 -378.246 210.882 -322.744 205.611C-235.548 197.328 -153.125 178.041 -66.5774 168.162C-34.3231 164.481 -3.9462 162.199 27.3794 169.034C52.7934 174.613 74.4526 184.185 95.1633 193.751C131.821 210.663 171.215 233.142 221.984 235.034C254.428 236.247 287.051 226.949 315.072 219.077C346.157 210.345 376.045 200.394 407.121 191.65C435.681 183.62 469.632 173.768 502.785 175.825C532.084 177.641 558.437 187.838 580.785 197.657C624.403 216.856 672.115 248.594 733.928 245.38C808.003 241.54 868.167 212.094 943.031 208.94M-494.92 202.149C-439.629 202.045 -379.883 204.075 -325.45 198.704C-236.716 189.955 -153.334 169.352 -65.3391 158.858C-33.2347 155.019 -2.62805 152.567 28.378 159.89C53.762 165.885 74.7722 176.28 94.7339 186.505C129.864 204.491 167.77 228.836 219.158 230.937C252.49 232.286 286.063 222.215 314.522 213.888C346.647 204.48 377.433 193.773 409.558 184.355C438.517 175.858 473.467 165.233 507.509 167.399C537.117 169.286 563.02 180.12 584.759 190.504C627.029 210.684 673.284 244.699 736.085 241.271C810.16 237.228 868.028 205.418 943.041 202.171M-494.9 195.457C-440.387 195.369 -381.012 197.437 -327.378 192.111C-237.895 183.225 -154.283 161.541 -65.6088 150.762C-33.9437 146.922 -2.76784 144.421 27.7988 151.793C53.3925 157.964 74.1132 168.919 93.7054 179.577C128.276 198.414 165.064 223.734 217.53 225.775C251.602 227.102 285.264 216.927 314.123 208.222C346.926 198.348 378.282 187.092 411.075 177.207C440.404 168.365 475.504 157.569 510.245 159.72C540.202 161.574 565.666 172.605 587.136 183.433C629.076 204.579 673.124 239.455 737.393 236.06C811.658 232.138 867.778 198.37 943.101 195.468M-494.89 188.875C-440.577 188.688 -381.391 191.014 -327.987 185.583C-239.113 176.527 -156.57 154.196 -68.5944 143.165C-37.0192 139.21 -5.86341 136.84 24.6833 144.125C50.6465 150.329 71.7766 161.415 91.6584 172.204C126.868 191.316 164.046 216.96 217.2 219.351C251.512 220.893 284.974 210.844 313.963 202.001C346.817 191.974 378.112 180.498 410.956 170.466C440.424 161.459 475.344 150.811 510.345 153.115C540.502 155.101 565.816 166.154 587.326 177.103C629.436 198.545 672.645 232.961 737.423 229.763C811.897 226.098 867.439 191.409 943.071 188.875M-494.88 182.44C-440.338 182.1 -381.331 185.035 -327.737 179.226C-240.441 169.764 -159.755 147.065 -73.3879 135.644C-41.4332 131.415 -11.0962 129.216 19.8899 136.549C46.3224 142.797 68.2014 153.768 88.8122 164.465C125.191 183.367 163.936 209.269 217.09 212.533C251.192 214.629 284.774 204.552 313.514 195.715C345.968 185.737 376.794 174.251 409.238 164.262C438.646 155.205 473.567 144.64 508.517 147.378C538.585 149.731 564.268 160.943 586.077 171.771C628.407 192.78 672.864 226.548 736.864 223.444C811.518 219.818 867.239 184.931 943.051 182.44M-494.86 176.116C-440.008 175.71 -381.161 179.462 -327.238 173.313C-241.719 163.56 -163.14 140.565 -78.5902 128.881C-46.3659 124.416 -16.7379 122.425 14.5977 129.665C41.4396 135.869 64.1974 146.555 85.5771 157.169C123.174 175.819 163.706 201.628 216.811 205.682C250.603 208.265 283.926 198.397 312.405 189.599C344.31 179.725 374.488 168.31 406.372 158.442C435.691 149.369 470.282 139.106 505.072 142.232C535.17 144.942 561.313 156.204 583.611 166.917C626.5 187.487 672.415 220.41 735.925 217.349C810.909 213.74 866.939 178.628 943.081 176.148M-494.84 169.912C-439.609 169.522 -380.792 174.267 -326.489 167.805C-242.927 157.871 -166.636 134.641 -84.0726 122.754C-51.7185 118.097 -22.6497 116.347 8.94553 123.379C36.2668 129.457 59.8734 139.835 82.0819 150.258C121.246 168.573 163.197 194.009 216.451 198.809C249.844 201.815 282.578 192.374 310.778 183.636C341.983 173.96 371.392 162.644 402.578 152.956C431.786 143.878 465.708 134.125 500.289 137.597C530.526 140.642 557.208 151.859 580.176 162.424C623.924 182.539 671.476 214.453 734.647 211.409C810.09 207.772 866.55 172.424 943.151 169.928M-494.83 163.828C-439.149 163.521 -380.353 169.407 -325.56 162.665C-244.096 152.644 -170.23 129.205 -89.7945 117.252C-57.4604 112.436 -28.791 110.938 2.96399 117.663C30.7746 123.555 55.21 133.571 78.3272 143.675C119.269 161.574 162.498 186.401 215.952 191.892C280.461 198.523 345.648 164.009 397.924 147.74C427.023 138.678 460.026 129.6 494.307 133.401C524.784 136.785 552.026 147.893 575.782 158.299C620.638 177.942 669.968 208.715 732.979 205.654C808.981 201.968 865.981 166.363 943.131 163.828M-494.81 157.871C-438.64 157.701 -379.833 164.849 -324.472 157.871C-245.194 147.844 -173.875 124.295 -95.6761 112.304C-63.4518 107.367 -35.062 106.138 -3.21719 112.474C25.1027 118.119 50.3868 127.691 74.4127 137.476C117.132 154.865 161.649 178.864 215.373 185.035C278.903 192.319 341.284 158.804 392.592 142.797C420.961 133.96 454.035 125.052 487.377 129.605C518.333 133.829 545.605 144.07 570.709 154.492C616.854 173.636 668.081 203.164 731.092 200.07C807.743 196.313 865.352 160.438 943.151 157.833M-494.79 152.029C-438.091 152.029 -379.224 160.548 -323.243 153.313C-246.223 143.357 -177.52 119.709 -101.628 107.784C30.1855 87.0548 98.948 163.582 214.734 178.228C277.145 186.132 336.371 153.823 386.75 138.14C414.99 129.364 446.785 121.371 479.708 126.182C511.054 130.762 538.964 140.779 565.077 151.004C612.66 169.654 665.874 197.838 729.015 194.695C806.375 190.855 864.663 154.701 943.181 152.029M-494.77 146.314C-437.521 146.544 -378.555 156.462 -321.905 149.012C-247.181 139.188 -181.105 115.486 -107.579 103.665C21.5078 82.9189 100.126 155.776 214.045 171.47C275.378 179.928 331.049 149.051 380.509 133.67C408.629 124.926 439.036 117.987 471.49 123.017C503.255 127.954 531.874 137.718 559.036 147.729C608.146 165.831 663.388 192.66 726.798 189.445C804.917 185.49 863.934 149.073 943.211 146.314M-494.75 140.718C-436.932 141.185 -377.846 152.55 -320.488 144.915C-248.05 135.271 -184.68 111.542 -113.431 99.8796C12.9198 79.1942 101.265 148.069 213.336 164.81C273.57 173.806 325.457 144.448 374.048 129.369C402.068 120.675 430.967 114.849 462.922 120.044C495.126 125.304 524.485 134.854 552.725 144.618C603.413 162.172 660.692 187.602 724.421 184.316C803.309 180.241 863.105 143.549 943.171 140.696M-494.73 135.244C-436.353 135.951 -377.097 148.771 -318.98 140.976C-248.779 131.552 -188.025 107.811 -119.073 96.347C4.59169 75.7823 102.383 140.521 212.617 158.266C271.763 167.789 319.755 139.994 367.517 125.206C395.418 116.566 422.909 111.887 454.334 117.268C486.988 122.863 517.115 132.172 546.414 141.695C598.689 158.699 657.985 182.725 722.115 179.357C801.831 175.167 862.366 138.217 943.231 135.244M-494.71 129.896C-435.794 130.839 -376.338 145.079 -317.552 137.153C-249.508 127.976 -191.321 104.24 -124.565 93.0009C-3.34703 72.5953 103.512 133.121 211.958 151.859C270.026 161.897 314.113 135.666 361.096 121.141C388.877 112.556 415.02 109.024 445.846 114.558C478.949 120.494 509.836 129.588 540.182 138.848C593.996 155.271 655.269 177.942 719.838 174.503C800.354 170.197 861.637 132.946 943.291 129.907M-494.69 124.663C-435.185 125.831 -375.589 141.437 -316.084 133.401C-250.087 124.487 -194.356 100.768 -129.678 89.7701C-10.7864 69.5509 104.62 125.875 211.249 145.606C268.348 156.171 308.491 131.393 354.825 117.159C382.516 108.656 407.291 106.188 437.598 111.882C471.13 118.157 502.766 127.071 534.101 136.061C589.393 151.92 652.553 173.258 717.571 169.731C798.846 165.315 860.848 127.795 943.251 124.663M-494.67 119.556C-434.606 120.916 -374.84 137.806 -314.666 129.687C-250.556 121.042 -197.132 97.3234 -134.391 86.583C-73.5274 76.1608 -8.77922 87.9269 48.0702 100.499C102.892 112.628 155.009 128.535 210.65 139.534C267.03 150.68 302.989 127.071 348.974 113.204C410.037 94.8001 472.578 118.14 528.469 133.275C585.099 148.59 650.037 168.655 715.484 165.052C797.478 160.543 860.159 122.759 943.291 119.55M-494.651 114.564C-434.027 116.084 -374.251 134.141 -313.308 125.963C-250.906 117.581 -199.609 93.8787 -138.555 83.3742C-78.251 72.9849 -11.7952 84.2683 45.3239 95.7822C101.255 107.06 154.489 121.953 210.12 133.67C265.751 145.387 298.245 122.935 343.641 109.265C403.316 91.3006 468.464 116.396 523.386 130.466C581.204 145.277 647.79 164.125 713.596 160.471C796.229 155.88 859.53 117.844 943.271 114.564M-494.63 109.698C-433.437 111.344 -373.712 130.411 -312.059 122.183C-251.146 114.059 -201.736 90.3679 -142.3 80.0663C-82.4547 69.7264 -14.4811 80.5491 42.8976 91.1084C99.8169 101.591 154.12 115.59 209.661 128.025C235.864 133.889 255.067 134.13 280.401 126.566C300.992 120.417 318.407 111.487 338.968 105.294C366.399 97.0217 388.248 97.2521 416.977 103.401C451.498 110.801 485.131 119.309 519.003 127.575C577.789 141.881 645.823 159.632 711.929 155.946C795.131 151.305 858.961 113.017 943.301 109.698M-494.611 104.948C-432.848 106.594 -373.303 126.572 -310.931 118.316C-251.226 110.412 -203.503 86.6325 -145.266 76.5942C-85.7302 66.3311 -16.5084 76.7039 41.0999 86.4679C98.7082 96.2319 154.02 109.507 209.381 122.672C234.965 128.755 253.669 129.616 278.783 122.09C298.695 116.122 315.311 107.312 335.173 101.3C362.454 93.0394 383.964 93.9171 412.194 100.269C446.885 108.075 481.036 116.566 515.547 124.602C575.073 138.458 644.435 155.222 710.641 151.525C794.302 146.857 858.561 108.338 943.311 104.998M-494.591 100.329C-432.249 101.931 -373.043 122.6 -309.972 114.323C-251.156 106.594 -204.921 82.6335 -147.493 72.8915C-88.0369 62.7929 -18.0661 72.694 39.9017 81.7614C98.3389 90.8945 154.13 103.615 209.262 117.504C234.326 123.812 252.82 125.14 277.745 117.614C297.117 111.772 313.065 103.017 332.377 97.1205C359.529 88.832 381.018 90.176 408.819 96.7694C443.559 104.997 478.111 113.511 513.151 121.377C573.066 134.833 643.586 150.729 709.742 147.059C793.733 142.397 858.301 103.659 943.411 100.329M-494.571 95.8259C-431.66 97.2795 -372.963 118.448 -309.193 110.148C-250.986 102.573 -205.75 78.5085 -149.01 68.8816C-89.7444 58.8324 -18.8549 68.5196 39.2627 77.0219C98.299 85.6614 154.34 98.0365 209.212 112.677C233.867 119.259 252.46 120.85 277.255 113.275C296.228 107.477 311.676 98.7167 330.62 92.8638C357.671 84.504 379.46 86.0838 406.931 92.979C441.602 101.679 476.413 110.252 511.843 117.987C571.938 131.102 643.276 146.286 709.163 142.671C793.354 138.058 858.082 99.1116 943.391 95.8259M-494.541 91.4375C-431.31 92.7431 -373.023 114.142 -308.864 105.765C-250.856 98.1955 -205.89 74.1531 -149.33 64.5811C-90.1238 54.5647 -18.9148 64.4494 39.2228 72.7708C98.4688 81.2512 154.33 93.533 209.272 108.239C233.837 114.822 252.69 116.193 277.315 108.667C296.159 102.907 311.507 94.2241 330.35 88.448C357.312 80.187 379.5 81.7229 406.712 88.8155C441.233 97.8116 476.084 106.451 511.663 114.109C571.468 126.983 643.736 141.996 709.113 138.244C793.184 133.428 858.332 95.1402 943.421 91.454M-494.521 87.1205C-431.151 88.3602 -373.033 109.901 -308.724 101.426C-250.806 93.7908 -205.61 69.9512 -149.011 60.4396C-89.8045 50.4891 -18.7552 60.8071 39.2925 69.1833C98.3488 77.7076 153.97 89.9674 209.292 103.977C261.657 117.235 287.611 96.8461 330.739 84.131C357.701 76.1827 380.03 77.6308 406.991 84.7508C441.363 93.8291 476.153 102.447 511.723 110.017C571.179 122.666 644.385 137.751 709.293 133.681C793.004 128.426 858.951 91.6953 943.471 87.2028M-494.501 82.8694C-430.941 84.0652 -372.963 105.765 -308.454 97.2192C-250.537 89.5397 -205.161 65.9525 -148.531 56.5286C-89.3251 46.6549 -18.4855 57.3678 39.4723 65.7715C98.2989 74.3012 153.71 86.5062 209.351 99.8083C261.278 112.227 288.16 92.2001 331.319 80.0609C358.28 72.4582 380.808 73.8624 407.531 80.9934C441.742 90.1211 476.433 98.6728 511.992 106.111C571.208 118.503 645.144 133.428 709.512 129.084C792.804 123.467 859.56 88.3329 943.461 83.1272M-494.481 78.695C-430.701 79.8579 -372.813 101.734 -308.065 93.149C-250.217 85.4804 -204.572 62.162 -147.902 52.8369C-88.6959 43.1277 -18.086 54.1095 39.762 62.5186C98.309 71.021 153.601 83.1327 209.441 95.6997C260.998 107.29 288.799 87.7075 332.068 76.1333C359.099 68.9091 381.797 70.3133 408.319 77.4389C442.341 86.583 476.962 95.036 512.462 102.299C571.528 114.394 645.913 128.952 709.842 124.383C792.725 118.464 860.249 84.9813 943.511 79.1339M-494.461 74.592C-430.412 75.7439 -372.634 97.7897 -307.556 89.1996C-249.758 81.5749 -203.833 58.5198 -147.113 49.3811C-87.9272 39.842 -17.6768 51.0706 40.1512 59.4523C98.3786 67.8998 153.501 79.8854 209.571 91.6954C260.739 102.474 289.518 83.407 332.986 72.4582C360.108 65.6234 382.985 67.077 409.338 74.1806C443.094 83.3712 477.732 91.5491 513.101 98.6784C572.117 110.439 646.711 124.46 710.271 119.682C792.614 113.522 860.968 81.7285 943.501 75.327M-494.431 70.5658C-430.092 71.7177 -372.334 93.9555 -306.936 85.3763C-249.188 77.812 -202.954 55.0641 -146.164 46.1119C-86.9982 36.7867 -17.0474 48.1909 40.6708 56.5341C98.5887 64.8939 153.561 76.7149 209.761 87.757C260.549 97.7404 290.367 79.2382 334.095 68.9531C361.346 62.5406 384.394 64.0766 410.596 71.1472C444.149 80.2769 478.661 88.3016 513.95 95.1787C572.996 106.572 647.581 119.83 710.801 114.926C792.615 108.58 861.747 78.5251 943.561 71.6245M-494.411 66.6273C-429.743 67.7847 -371.994 90.2145 -306.228 81.7011C-248.519 74.23 -201.955 51.8112 -145.146 43.073C-86.0099 33.9782 -16.4286 45.5195 41.2397 53.7915C98.7282 62.0196 153.68 73.6541 209.941 83.9118C260.369 93.1108 291.285 75.2394 335.313 65.6509C362.714 59.6828 385.941 61.3339 412.034 68.3936C445.357 77.436 479.714 85.2802 514.888 91.8765C574.034 102.847 648.389 115.222 711.34 110.203C792.585 103.73 862.465 75.4478 943.541 68.1248M-494.391 62.7655C-429.363 63.9504 -371.565 86.5941 -305.419 78.1246C-247.75 70.7852 -200.847 48.7229 -143.978 40.2206C-84.8814 31.3891 -15.6795 43.0126 41.8589 51.1914C98.948 59.3097 153.84 70.6809 210.12 80.1487C260.199 88.5688 292.274 71.3721 336.631 62.5187C364.202 57.0333 387.609 58.8106 413.622 65.8099C446.724 74.7451 480.938 82.3798 516.007 88.6566C575.343 99.205 649.278 110.532 711.999 105.425C792.655 98.843 863.255 72.3979 943.571 64.6964M-494.371 58.9915C-428.954 60.2093 -371.166 83.0724 -304.53 74.7182C-246.902 67.4884 -199.629 45.7992 -142.7 37.5601C-83.6534 29.0194 -14.8808 40.6813 42.5778 48.7558C99.2674 56.7261 154.11 67.8121 210.34 76.479C260.079 84.1585 293.382 67.664 338.089 59.573C365.849 54.5539 389.436 56.5231 415.389 63.4128C448.26 72.2125 482.312 79.6139 517.245 85.5518C576.81 95.6175 650.146 105.776 712.688 100.609C792.744 94.0267 864.013 69.3973 943.57 61.3777M-494.351 55.3109C-428.524 56.5726 -370.676 79.6551 -303.621 71.416C-245.963 64.3563 -198.32 43.0401 -141.321 35.0863C-82.3349 26.8582 -14.0417 38.5147 43.4168 46.4685C99.687 54.2687 154.489 65.0365 210.66 72.8971C260.06 79.8142 294.661 64.0876 339.737 56.7975C367.697 52.2775 391.453 54.4388 417.387 61.2955C450.019 69.9408 483.9 77.0835 518.683 82.6501C578.478 92.2002 651.075 101.108 713.477 95.8809C792.904 89.26 864.812 66.5505 943.611 58.2566M-494.331 51.7399C-428.095 53.04 -370.177 76.3419 -302.533 68.24C-244.965 61.3394 -196.923 40.44 -139.864 32.7879C-80.9471 24.8834 -13.1232 36.5125 44.2055 44.3072C100.066 51.9209 154.829 62.3322 210.879 69.3919C259.97 75.5794 295.939 60.6153 341.364 54.1645C369.524 50.1546 393.47 52.5189 419.414 59.3262C451.799 67.7986 485.499 74.6626 520.111 79.8361C580.296 88.8321 651.994 96.3471 714.296 91.1305C793.104 84.5481 865.581 63.7474 943.63 55.2177M-494.311 48.2292C-427.596 49.6061 -369.568 73.1329 -301.444 65.1846C-243.886 58.4759 -195.425 37.9935 -138.326 30.6595C-79.4591 23.1061 -12.1446 34.6693 45.1042 42.3324C100.546 49.7542 155.268 59.7705 211.169 66.0293C259.97 71.5147 297.357 57.3569 343.122 51.7673C371.492 48.2841 395.617 50.9006 421.601 57.6147C453.74 65.8971 487.253 72.464 521.679 77.225C582.233 85.6286 652.933 91.701 715.154 86.4789C793.344 79.9238 866.34 61.1089 943.651 52.3817M-494.291 44.8337C-427.096 46.2819 -368.969 70.0336 -300.276 62.2608C-242.768 55.7497 -193.917 35.7005 -136.718 28.7012C-77.9312 21.5044 -11.136 32.9853 46.023 40.4783C101.065 47.6916 155.718 57.2856 211.439 62.7435C259.99 67.4994 298.825 54.1973 344.939 49.4414C373.509 46.4958 397.804 49.3701 423.877 56.0239C455.766 64.1003 489.085 70.3501 523.306 74.6742C584.22 82.4416 653.841 87.0054 716.033 81.8053C793.613 75.327 867.069 58.4978 943.671 49.595M-494.271 41.5425C-426.607 43.0674 -368.33 67.044 -299.108 59.4577C-241.589 53.155 -192.329 33.5502 -135.06 26.8965C-76.3534 20.0781 -10.0873 31.4439 47.0317 38.7614C101.684 45.7662 156.257 54.8994 211.798 59.562C260.14 63.6157 300.452 51.1803 346.897 47.3021C375.676 44.894 400.141 48.0426 426.314 54.5977C457.955 62.4652 491.078 68.3923 525.084 72.2716C586.407 79.3642 654.84 82.3702 717.012 77.2085C793.903 70.8125 867.798 56.0129 943.691 46.962M-494.251 38.3555C-426.098 39.9627 -367.67 64.1368 -297.879 56.7809C-240.361 50.6976 -190.691 31.5372 -133.353 25.2454C-74.7257 18.8275 -8.99889 30.0506 48.0502 37.1816C102.333 43.9671 156.806 52.612 212.108 56.4847C260.279 59.8582 302.06 48.306 348.804 45.3055C377.763 43.4459 402.418 46.8798 428.691 53.3526C460.086 60.9963 493.009 66.5841 526.781 70.0007C588.494 76.3802 655.719 77.801 717.891 72.6776C794.222 66.3913 868.407 53.6378 943.641 44.4553M-494.231 35.2837C-425.578 36.9732 -366.981 61.3942 -296.631 54.2302C-239.123 48.3663 -189.014 29.6666 -131.605 23.7644C-73.078 17.7304 -7.90041 28.8274 49.1387 35.7609C103.062 42.3434 157.415 50.4563 212.487 53.5446C260.569 56.2434 303.778 45.5907 350.881 43.4734C380.05 42.1624 404.805 45.8979 431.327 52.2829C462.48 59.6989 495.202 64.9399 528.729 67.8834C669.529 80.6588 807.504 59.1067 943.78 42.102M-494.211 32.3105C-425.049 34.0932 -366.283 58.7281 -295.353 51.7891C-237.845 46.1611 -187.306 27.9277 -129.828 22.371C-71.4006 16.721 -6.77216 27.6808 50.1472 34.4114C103.761 40.769 157.954 48.3553 212.777 50.6427C260.848 52.6668 305.415 42.9631 352.868 41.7015C382.206 40.9335 407.171 44.9927 433.843 51.2845C464.64 58.5965 497.343 63.2591 530.546 65.8372C667.762 76.4953 810.879 56.7095 943.75 39.82M-494.191 29.4582C-424.52 31.3342 -365.573 56.183 -294.065 49.4744C-236.546 44.0603 -185.589 26.3151 -128.04 21.1314C-69.7129 15.8819 -5.64376 26.6936 51.2156 33.1993C104.54 39.3155 158.544 46.3642 213.116 47.9056C261.278 49.266 307.103 40.4784 354.915 40.1108C384.423 39.8859 409.548 44.2633 436.43 50.4782C467.026 57.5489 499.51 61.8111 532.433 63.9284C595.155 67.9602 658.754 64.5263 720.956 59.595C795.59 53.6762 870.334 47.1815 943.77 37.6534M-494.171 26.721C-424.59 28.6574 -365.723 53.5501 -294.285 47.4174C-236.996 42.4806 -185.938 25.4265 -128.839 20.2538C-71.1208 15.0262 -8.3399 25.399 48.0202 31.6634C102.503 37.6973 157.695 44.4388 213.466 45.2836C262.976 46.0351 311.217 37.7302 360.617 38.7011C390.435 39.2881 415.29 44.6418 442.621 50.588C471.011 56.7645 500.988 60.3026 531.305 61.9756C595.834 65.5357 659.833 60.2861 723.593 55.3328C797.188 49.6171 871.443 45.2178 943.82 35.6622M-494.161 24.1044C-424.1 26.134 -364.994 51.2352 -293.026 45.3384C-235.727 40.6429 -184.26 24.0386 -127.072 19.2444C-69.4732 14.4392 -7.19153 24.664 49.0887 30.7253C103.312 36.5727 158.294 42.7932 213.775 42.7932C263.575 42.7932 312.885 35.5909 362.694 37.4285C392.552 38.5255 417.616 44.1865 445.157 50.0065C473.357 55.9636 503.135 59.1287 533.193 60.3793C597.931 63.0727 660.822 56.1446 724.571 51.3284C797.688 45.8046 871.932 43.4514 943.8 33.7752M-494.141 21.6141C-423.551 23.737 -364.325 49.0411 -291.748 43.3747C-234.429 38.8986 -182.563 22.7606 -125.294 18.3393C-67.8155 13.8907 -6.02308 24.0441 50.2272 29.908C104.151 35.5415 158.923 41.2024 214.115 40.4016C264.274 39.672 314.552 33.5503 364.781 36.2437C394.679 37.8509 419.943 43.8135 447.664 49.5073C475.624 55.2505 505.262 58.0426 535.04 58.8709C599.948 60.6866 661.8 52.1129 725.53 47.4284C798.187 42.0856 872.322 41.7894 943.771 31.9925M-494.121 19.25C-423.042 21.4441 -363.566 46.9622 -290.48 41.5316C-233.151 37.2695 -180.885 21.5703 -123.526 17.544C-66.1678 13.5177 -4.87464 23.534 51.2258 29.195C105.02 34.6255 159.532 39.7543 214.424 38.1471C265.023 36.6661 316.16 31.6415 366.808 35.1795C396.766 37.2695 422.21 43.5557 450.19 49.1179C478.171 54.6801 507.429 57.0717 536.927 57.4886C601.835 58.4157 662.869 48.2348 726.528 43.6819C798.766 38.5147 872.841 40.27 943.81 30.3305M-494.111 17.0119C-422.543 19.3157 -362.857 44.9874 -289.252 39.8092C-231.893 35.7555 -179.248 20.5335 -121.809 16.8473C-64.6102 13.1776 -3.69654 23.1281 52.3041 28.597C105.938 33.8301 160.151 38.4214 214.774 36.0242C265.871 33.7807 317.768 29.8477 368.865 34.2141C398.733 36.7703 424.476 43.3856 452.656 48.8217C480.317 54.1535 509.576 56.205 538.754 56.2214C603.662 56.2653 663.917 44.5266 727.487 40.0944C799.385 35.0808 873.28 38.8821 943.81 28.7835M-494.101 14.9109C-422.053 17.2915 -362.188 43.1771 -288.053 38.1964C-230.665 34.3566 -177.64 19.546 -120.131 16.2548C-62.9925 12.9636 -2.68803 22.8373 53.3226 28.1142C106.847 33.1388 160.79 37.2145 215.093 34.0384C266.74 31.0215 319.306 28.1801 370.872 33.3583C400.73 36.3478 426.693 43.2978 455.083 48.6076C482.614 53.7529 511.623 55.437 540.532 55.0639C605.34 54.2357 664.966 40.9939 728.446 36.6659C799.934 31.7949 873.64 37.6423 943.84 27.3408M-494.081 12.9417C-421.584 15.4046 -361.509 41.4657 -286.885 36.7044C-229.466 33.0346 -176.042 18.7013 -118.504 15.7227C-61.4846 12.7716 -1.6693 22.6289 54.3113 27.7083C107.736 32.541 161.409 36.1065 215.403 32.1679C267.629 28.3611 320.843 26.5948 372.77 32.5684C402.598 35.9967 428.78 43.2759 457.42 48.476C484.781 53.4129 513.64 54.7732 542.299 54.0217C606.938 52.3377 666.054 37.6588 729.424 33.4241C800.573 28.6683 874.059 36.5453 943.92 26.0408M-494.071 11.1096C-421.175 13.6494 -360.88 39.8969 -285.777 35.3276C-228.328 31.8279 -174.604 17.928 -116.936 15.2785C-60.0166 12.6675 -0.640766 22.5083 55.25 27.4122C108.604 32.1022 162.009 35.1301 215.682 30.4456C268.518 25.8379 322.211 25.1248 374.587 31.8718C404.355 35.7116 430.788 43.3198 459.617 48.3993C486.838 53.1935 515.537 54.1864 543.897 53.0783C608.306 50.5605 667.013 34.5268 730.263 30.3469C801.162 25.6788 874.349 35.5745 943.9 24.8176M-494.062 9.42554C-420.706 12.0256 -360.251 38.4487 -284.728 34.0604C-227.23 30.7253 -173.176 17.2367 -115.448 14.9109C-58.6188 12.6235 0.297653 22.4643 56.1385 27.2147C109.443 31.7511 162.588 34.2744 215.962 28.8603C269.336 23.4462 323.559 23.7643 376.345 31.2574C406.043 35.4757 432.735 43.3253 461.724 48.3828C488.685 53.0947 517.425 53.6872 545.435 52.2226C609.584 48.9313 667.961 31.603 731.082 27.478C801.672 22.8647 874.648 34.7626 943.9 23.715M-494.001 7.85669C-420.246 10.5116 -359.662 37.1103 -283.69 32.892C-226.211 29.716 -171.838 16.6333 -114.04 14.6092C-57.3405 12.6235 1.1965 22.4972 56.9774 27.1104C110.252 31.4987 163.147 33.5448 216.212 27.4176C270.275 21.1807 324.818 22.4807 377.982 30.7088C407.62 35.2836 434.542 43.4295 463.701 48.4157C490.553 53.0069 519.142 53.2702 546.863 51.5094C577.11 49.5841 606.598 45.1738 635.637 40.2808C666.973 35.0094 699.217 26.9678 731.861 24.8395C802.211 20.2482 874.938 34.1207 943.91 22.744M-494.001 6.48535C-419.887 9.18416 -359.193 35.9529 -282.781 31.8772C-225.252 28.8054 -170.59 16.0848 -112.722 14.3624C-56.1122 12.6564 2.00539 22.5905 57.7364 27.0885C111.011 31.3781 163.696 32.9414 216.451 26.1231C271.104 19.0579 326.006 21.3014 379.56 30.2426C409.068 35.1794 436.22 43.5721 465.528 48.487C492.27 52.9686 520.73 52.9356 548.181 50.8731C578.368 48.6132 607.687 43.8189 636.556 38.6133C667.662 33.0072 699.956 24.5487 732.59 22.404C802.72 17.8017 875.217 33.6216 943.92 21.8554M-494.001 5.24023C-419.547 7.98293 -358.693 34.9107 -281.952 30.9557C-224.384 27.9827 -169.462 15.646 -111.544 14.1705C-55.0138 12.7278 2.71435 22.777 58.4054 27.1599C111.69 31.3452 164.185 32.4697 216.631 24.9657C271.913 17.0832 327.065 20.2099 380.998 29.8367C410.396 35.0808 437.748 43.7312 467.206 48.5913C493.838 52.9796 522.128 52.6724 549.379 50.3411C579.497 47.763 608.665 42.6067 637.385 37.1158C668.281 31.2081 700.615 22.3766 733.249 20.1989C803.15 15.5363 875.477 33.2816 943.95 21.093M-494.001 4.14868C-419.237 6.89138 -358.284 34.0057 -281.213 30.1439C-223.575 27.2531 -168.373 15.2566 -110.395 14.0224C-53.9254 12.8156 3.44333 23.0129 59.0745 27.308C112.379 31.4166 164.725 32.1242 216.851 23.9784C272.702 15.2511 327.993 19.2006 382.306 29.4638C411.605 35.0095 439.136 43.8849 468.714 48.701C495.256 53.018 523.446 52.4695 550.438 49.8914C580.515 47.017 609.524 41.5316 638.114 35.7774C668.84 29.5844 701.194 20.4513 733.868 18.2242C803.629 13.4629 875.777 33.0896 943.95 20.4184M-494.001 3.21606C-418.948 5.95876 -357.934 33.2431 -280.564 29.4417C-222.916 26.6113 -167.464 14.9329 -109.437 13.8906C-53.0266 12.8978 3.96262 23.2761 59.5938 27.5109C112.928 31.57 165.174 31.8992 217.001 23.1225C273.431 13.5615 328.752 18.257 383.465 29.1565C412.633 34.971 440.324 44.0493 470.012 48.8326C496.474 53.1002 524.525 52.3432 551.327 49.5457C581.364 46.4025 610.243 40.6209 638.713 34.6254C669.299 28.1801 701.624 18.811 734.387 16.5236C803.999 11.6142 876.056 33.0895 943.96 19.8587M-494.001 2.43726C-419.317 5.17995 -358.504 32.4643 -281.583 28.9262C-220.799 26.1341 -162.042 13.5232 -100.709 13.781C-48.2734 14.0005 4.34204 23.4628 56.1386 27.5329C111.171 31.8554 163.846 31.7347 217.14 22.4809C276.237 12.2451 331.608 17.6263 388.567 29.7984C414.101 35.2509 438.427 42.6891 464.15 47.796C491.372 53.1991 521.259 52.6725 549.27 49.672C581.054 46.271 611.481 39.7983 641.459 33.2158C671.676 26.5565 703.8 17.182 736.384 14.9878C805.287 10.3746 876.945 33.15 943.95 19.4145M-494.001 1.82275C-419.108 4.52705 -358.294 31.9924 -281.163 28.4488C-220.359 25.6513 -161.333 13.3366 -100.02 13.748C-47.6242 14.1045 4.72155 23.8301 56.4882 27.9058C111.56 32.2392 164.225 31.8114 217.26 21.9541C276.956 10.8517 332.037 16.8637 389.466 29.6337C414.88 35.2836 439.275 42.7877 465.069 47.9C492.23 53.3086 521.988 52.6723 549.839 49.5018C581.604 45.8869 611.911 39.1344 641.798 32.3764C671.976 25.5526 704.09 16.0738 736.754 13.7699C805.526 8.95376 877.265 33.4351 943.96 19.0359M-494.001 1.38403C-418.958 4.04445 -358.194 31.6744 -280.844 28.0759C-220.03 25.2455 -160.874 13.1941 -99.4807 13.7371C-47.105 14.1979 4.99115 24.2362 56.7378 28.3447C111.84 32.733 164.585 32.0364 217.28 21.5867C277.555 9.63955 332.197 16.1562 390.115 29.4637C415.469 35.2837 439.925 42.8646 465.738 48.0373C492.879 53.4733 522.378 52.7876 550.208 49.469C614.507 41.7894 672.115 17.747 737.033 12.8979C805.686 7.76903 877.614 33.9014 943.96 18.7782M-494.001 1.10498C-418.838 3.71054 -358.094 31.505 -280.654 27.8188C-219.83 24.9171 -160.474 13.1015 -99.1113 13.7323C-46.7255 14.2809 5.14095 24.6702 56.8676 28.8501C111.989 33.3042 164.914 32.4046 217.31 21.39C278.114 8.60351 332.147 15.4986 390.615 29.3438C415.759 35.2845 440.274 43.156 466.147 48.1258C493.628 53.3972 522.238 52.9693 550.368 49.5026C614.777 41.5597 672.065 17.4953 737.213 12.2952C805.776 6.80979 878.013 34.5384 943.92 18.6143M-494.001 1C-418.758 3.52877 -358.124 31.4878 -280.604 27.6645C-219.78 24.664 -160.344 13.0459 -98.8617 13.7261C-46.4659 14.3076 5.2008 25.1357 56.9175 29.4143C112.039 33.9727 165.244 32.925 217.33 21.3563C278.603 7.73606 331.878 14.878 390.904 29.2498C444.827 42.3708 489.255 57.3075 550.318 49.617C614.896 41.4822 671.916 17.6207 737.293 12.0037C805.776 6.11787 878.393 35.344 944 18.5862" stroke="url(#paint0_linear)" stroke-miterlimit="10"/>
<defs>
<linearGradient id="paint0_linear" x1="1.03622e+06" y1="5157.48" x2="1.03622e+06" y2="1393.2" gradientUnits="userSpaceOnUse">
<stop/>
<stop offset="1" stop-color="white" stop-opacity="0.3"/>
</linearGradient>
</defs>
</svg>
